<svg viewBox="0 0 355 206" xmlns="http://www.w3.org/2000/svg" xmlns:xlink="http://www.w3.org/1999/xlink"><defs><path d="M5.52 11.04c3.05 0 5.52-2.47 5.52-5.52C11.04 2.47 8.57 0 5.52 0 2.47 0 0 2.47 0 5.52c0 3.05 2.47 5.52 5.52 5.52z" id="a"/><path id="c" d="M0 0h68.2v43.1H0z"/><path id="e" d="M0 0h23.32v15.13H0z"/></defs><g fill="none" fill-rule="evenodd"><g fill-rule="nonzero"><rect fill="#000" x="1.94" y="204.7" width="349.67" height="1.3" rx=".65"/><rect fill="#A9ABAE" y="196.93" width="354.85" height="7.77" rx="3.89"/><path fill="#E6E7E8" d="M0 185.92h354.85v15.55H0z"/><rect fill="#C0C0C0" x="326.36" y="190.45" width="12.3" height="2.59" rx="1.3"/><path d="M152.82 185.92v4.46c0 .4.3.72.7.72h47.8c.4 0 .7-.32.7-.72v-4.46h-49.2z" fill="#A9ABAE"/><path d="M37.74 0c-1.17 0-2.13.96-2.13 2.14v183.78h282.34V2.14c0-1.18-.96-2.14-2.13-2.14H37.75z" fill="#373435"/><path fill="#4B4B4D" d="M45.97 11.66h262.9V177.5H45.97z"/><path d="M64.13 0l253.8 185.92V2.14C317.94.96 317 0 315.8 0H64.13z" fill="#FFF" opacity=".05"/><ellipse fill="#7C7B7B" cx="177.42" cy="5.83" rx="1.3" ry="1.3"/></g><path fill="#FFF" fill-rule="nonzero" d="M46.65 11.57H309.1v165.58H46.64z"/><path d="M93.56 47.63V175.3M115.1 48.16v128.2M136.47 48.16V177.6M72.02 48.16v126.6M236.8 68.82H47.45M236.45 91.78H46.38M236.45 114.22H46.2M236.45 137.36H47.27M236.45 159.8h-189M157.84 48.16V176.7M179.2 48.16v127.3M200.93 48.87v127.3M221.94 48.16v128.37" stroke="#96B4D1" stroke-width=".5" stroke-linecap="square" stroke-dasharray="1.780466724286949,1.780466724286949,1.780466724286949" opacity=".5"/><path d="M55.02 26.35c3.04 0 5.52-2.47 5.52-5.52 0-3.05-2.48-5.52-5.52-5.52-3.05 0-5.52 2.48-5.52 5.53 0 3.05 2.47 5.52 5.52 5.52z" fill-rule="nonzero" fill="#D8D8D8"/><g transform="translate(49.497 15.312)"><mask id="b" fill="#fff"><use xlink:href="#a"/></mask><g fill-rule="nonzero" mask="url(#b)"><path d="M8.9 9.96l-.04-.1c-.02-.06-.07-.1-.13-.1l-.03-.25-.08-.53V8.9c-.04-.27-.22-.52-.5-.66l-.35-.17c-.05-.03-.1 0-.14.05l-.74-.27c-.16-.05-.25-.18-.25-.33v-.55l.75-.3c.38-.17.64-.54.64-.96V4.17c0-.47-.4-1.2-.87-1.2H4.05c-.48 0-.87.73-.87 1.2V5.7c0 .43.25.8.64.96l.75.3v.56c0 .15-.1.28-.24.33l-.75.27c-.04-.04-.08-.08-.13-.05l-.34.17c-.28.14-.46.4-.5.67v.07l-.08.54-.03.27c-.07 0-.12.03-.14.08l-.03.1c-.02.07.02.14.08.15h.04l-.05.35c-.05.3.2.6.5.6h5.4c.32 0 .57-.3.52-.6l-.04-.34h.03c.07 0 .1-.08.1-.14z" fill="#F6B47B"/><path d="M4.57 6.93v.6c0 .12-.07.23-.17.3 1.38.23 2.17-.8 2.24-.9H4.57z" fill="#E2A071"/><path d="M7.4 6.66l-1.12.46c-.22.1-.44.14-.67.14-.22 0-.45-.05-.66-.14l-1.12-.46c-.4-.16-.64-.53-.64-.95V4.17c0-.47.4-1.2.87-1.2h3.12c.48 0 .87.73.87 1.2V5.7c0 .43-.26.8-.64.96z" fill="#FDC88E"/><path d="M5.6 6.4c-.3 0-.6-.07-.78-.2-.08-.06-.1-.16-.05-.24.06-.08.16-.1.24-.05.15.1.37.16.6.16.25 0 .47-.06.6-.15.08-.04.2-.02.25.06.05.08.03.18-.05.24-.2.13-.48.2-.8.2z" fill="#E2A071"/><path d="M3.18 4.36V5.7c0 .43.25.8.64.96l1.12.46c.06.03.1.05.17.06-.5-.36-.82-.67-1-.87-.15-.14-.23-.34-.23-.55V4.8c.5-.18 1.78-.74 1.8-1.67V2.9C4.85 4 3.72 4.3 3.17 4.36z" fill="#F6B47B"/><path d="M8.6 6.8c0-.38-.3-.53-.3-.84 0-.3.4-.4.4-.86 0-.3-.14-.55-.23-.78C9 2.05 7 1.07 6.47 1.07c-.56 0-.86.17-.86.17s-.3-.17-.86-.17c-.54 0-2.52.98-2 3.25-.08.23-.22.47-.22.78 0 .46.4.55.4.86 0 .3-.3.46-.3.83 0 .35.28.53.37.8.04.13 0 .5 0 .5s.3-.5.13-.97c-.16-.46.03-.5.18-.7.23-.32.2-.66.02-1-.12-.2-.1-.42.07-.56.17-.16.2-.42.2-.42.83-.24 2-.72 2-1.5 0 .78 1.2 1.26 2 1.5 0 0 .05.26.22.42.17.14.2.35.08.56-.18.34-.2.68 0 1 .16.2.35.24.18.7-.16.47.15.97.15.97s-.05-.37 0-.5c.1-.27.38-.45.38-.8z" fill="#6E4439"/><path d="M8.62 8.9c-.04-.27-.22-.52-.5-.66l-.35-.17c-.06-.03-.1.02-.15.07-.93 1.07-2 1.52-2 1.52S4.5 9.2 3.6 8.14c-.04-.05-.1-.1-.15-.07l-.34.17c-.28.14-.46.4-.5.67l-.14 1.06c.46.16 1.24.4 1.24.4v.68h3.82v-.7s.78-.22 1.24-.38L8.62 8.9z" fill="#57B9DD"/><path d="M3.7 10.3c0-.2-.08-.4-.2-.57l-.82-1.07c-.04.08-.07.16-.08.25l-.14 1.03 1.24.37z" fill="#43A0C5"/><path d="M2.33 9.96c-.02.06 0 .13.08.14l1.3.38v-.13c0-.08 0-.16-.03-.24L2.5 9.78c-.06 0-.12.02-.14.08l-.03.1z" fill="#258CAC"/><path d="M7.52 10.3c0-.2.08-.4.2-.57l.82-1.07c.04.08.06.16.08.25l.13 1.03-1.23.37z" fill="#43A0C5"/><path d="M8.9 9.96c0 .06-.03.13-.1.14l-1.28.38v-.13c0-.08 0-.16.03-.24l1.16-.33c.07 0 .14.02.16.08l.03.1z" fill="#258CAC"/><path d="M4.74 1.07c-.54 0-2.52.98-2 3.25-.08.23-.22.47-.22.78 0 .46.4.55.4.86 0 .3-.3.46-.3.83 0 .35.28.53.37.8.04.13 0 .5 0 .5s.3-.5.13-.97c-.16-.46.03-.5.18-.7.23-.32.2-.66.02-1-.12-.2-.1-.42.07-.56.17-.16.2-.42.2-.42-.48-2.23 1.47-3.2 2-3.2 0 0-.3-.18-.86-.18z" fill="#5E342E"/></g></g><path fill="#F3F5F7" fill-rule="nonzero" d="M46.65 29.02h189.8v18.52H46.65z"/><path d="M138.86 23.73l.54-1.8h.35l.53 1.8.5-1.8h.34l-.67 2.26h-.33l-.55-1.84-.56 1.83h-.32l-.66-2.28h.34l.5 1.8zm2.87-.83c.03-.08.1-.14.18-.2.1-.05.2-.07.3-.07.1 0 .2 0 .26.05.07.03.13.07.18.13.04.07.08.13.1.2.02.08.03.16.03.25v.94h-.3v-.85-.18l-.06-.15c-.02-.04-.05-.07-.1-.1-.04-.02-.1-.04-.17-.04-.12 0-.22.05-.3.14-.07.1-.1.2-.1.36v.8h-.3v-2.42h.3v1.14zm1.86 1.3h-.3v-1.53h.3v1.52zm.04-2.08c0 .06-.02.1-.06.14-.04.03-.1.05-.14.05-.06 0-.1 0-.14-.04-.04-.04-.06-.1-.06-.14 0-.06.02-.1.06-.14.04-.04.08-.06.14-.06.05 0 .1.02.14.06.04.04.06.08.06.14zm1.22.8h-.4v.8c0 .08 0 .14.04.18.04.04.1.06.17.06h.1l.07-.04v.25l-.1.03h-.14c-.15 0-.25-.03-.33-.1-.08-.08-.1-.2-.1-.36v-.82h-.3v-.25h.3v-.44h.28v.44h.4v.25zm1.42.37c0-.07 0-.12-.03-.17-.02-.06-.05-.1-.08-.14-.04-.05-.08-.08-.13-.1-.05-.02-.12-.04-.2-.04-.05 0-.1.02-.17.04-.05.02-.1.05-.14.1-.05.03-.08.07-.1.13-.03.05-.05.1-.05.16h.9zm.3.12v.1h-1.2c0 .06 0 .12.04.18l.1.15.16.1c.06.02.12.03.2.03.1 0 .18-.02.26-.07.07-.03.13-.1.17-.15l.22.17c-.08.1-.17.18-.28.23-.1.05-.24.08-.37.08-.12 0-.22-.02-.32-.06-.1-.04-.18-.1-.25-.16s-.13-.14-.17-.24c-.04-.1-.06-.2-.06-.33 0-.12.02-.22.06-.32.04-.1.1-.18.16-.25s.15-.12.24-.16c.1-.05.2-.07.3-.07.13 0 .23 0 .32.05.1.04.16.1.23.16.05.07.1.15.13.25.04.08.05.2.05.32zm.72.53v.24h-.3v-2.44h.3v1.14h.02c.05-.08.12-.14.22-.2.1-.05.2-.07.32-.07s.22.02.3.06c.1.03.2.08.25.16.08.07.13.16.17.25.03.1.05.2.05.32s-.02.22-.05.32c-.04.1-.1.18-.16.26-.05.07-.13.13-.23.17-.1.04-.2.06-.3.06-.12 0-.23-.02-.32-.07-.1-.05-.18-.12-.24-.2zm1-.53c0-.07 0-.13-.02-.2s-.05-.13-.1-.18c-.04-.05-.1-.1-.15-.12-.07-.03-.14-.04-.22-.04-.07 0-.14 0-.2.04-.07.03-.12.07-.17.12-.04.05-.08.1-.1.18-.02.07-.04.14-.04.2 0 .08 0 .15.03.22.02.06.06.12.1.17.05.06.1.1.17.13.06.03.13.05.2.05.1 0 .16-.02.23-.05.06-.03.1-.07.15-.12.05-.05.08-.1.1-.17.02-.07.03-.13.03-.2zm2.28 0c0 .12-.02.23-.06.33-.04.1-.1.18-.17.25-.08.07-.17.13-.27.17-.1.04-.2.06-.32.06-.1 0-.22-.02-.32-.06-.1-.04-.2-.1-.26-.17-.08-.07-.13-.15-.17-.25-.04-.1-.06-.2-.06-.33 0-.1.02-.22.07-.32s.1-.18.18-.25c.07-.07.16-.12.26-.16.1-.05.2-.07.32-.07s.22.02.32.06c.1.03.2.08.27.15.07.07.13.16.17.25.04.1.06.2.06.32zm-.3 0c0-.07-.02-.14-.05-.2-.02-.07-.05-.13-.1-.18-.04-.05-.1-.1-.15-.12-.07-.03-.14-.04-.22-.04-.08 0-.15 0-.22.04-.06.03-.1.07-.15.12-.06.05-.1.1-.1.18-.03.06-.05.13-.05.2 0 .08.02.15.04.2 0 .08.04.14.1.2.03.04.08.08.14.1.07.04.14.06.22.06.08 0 .15-.02.22-.05.06-.03.1-.07.16-.12.04-.04.07-.1.1-.17.02-.06.03-.13.03-.2zm1.66-.22c0-.1-.03-.2-.1-.25-.07-.05-.16-.08-.27-.08-.1 0-.17.02-.24.05-.08.03-.14.08-.2.13l-.15-.2c.07-.07.16-.12.27-.16.1-.05.22-.07.35-.07.1 0 .2 0 .28.04.08.03.15.08.2.13.05.05.1.12.1.2.04.06.05.14.05.22V24.04l.02.14h-.27c-.02-.1-.02-.16-.02-.23-.07.08-.14.14-.22.2-.1.03-.2.06-.3.06-.06 0-.13 0-.2-.03-.06 0-.12-.04-.17-.08-.05-.03-.1-.08-.13-.14-.04-.06-.05-.13-.05-.22 0-.12.02-.2.08-.28.06-.06.14-.1.24-.15.1-.03.22-.06.34-.07h.38v-.06zm-.07.26h-.23l-.22.05c-.07.03-.12.06-.16.1-.05.04-.07.1-.07.15 0 .05 0 .08.02.1l.07.1.1.03h.1c.15 0 .25-.03.33-.12.08-.08.1-.2.1-.32v-.08h-.06zm.86-.46v-.16-.17h.28c0 .04 0 .08.02.13v.12c.05-.08.1-.16.2-.2.08-.07.17-.1.27-.1.04 0 .08 0 .1.02v.28l-.14-.02c-.07 0-.13.02-.2.04l-.12.1c-.03.05-.06.1-.08.17-.02.06-.02.13-.02.2v.8h-.3V23zm2.32.95c-.06.1-.14.16-.24.2-.1.06-.2.08-.3.08-.12 0-.22-.02-.32-.06-.1-.04-.17-.1-.24-.17-.06-.08-.1-.16-.15-.26-.05-.1-.07-.2-.07-.32 0-.1.02-.2.06-.3.03-.1.08-.2.14-.26.07-.08.15-.13.25-.17.08-.05.18-.07.3-.07s.23.02.32.08c.1.06.17.12.22.2v-1.14h.3v2.43h-.28v-.25zm-1-.53c0 .08 0 .14.03.2.02.08.05.13.1.2.04.04.1.08.15.1.07.04.14.06.22.06.08 0 .15-.02.2-.05.07-.03.13-.07.17-.12.05-.04.08-.1.1-.16.03-.07.04-.14.04-.2 0-.08 0-.15-.03-.22s-.06-.13-.1-.18c-.05-.05-.1-.1-.17-.12-.06-.03-.13-.04-.2-.04-.1 0-.16 0-.23.04-.06.03-.1.07-.15.12-.05.05-.08.1-.1.18-.02.07-.03.13-.03.2z" fill="#4A4A4A"/><path d="M63.37 22.26c.02.08.06.15.1.2.07.05.14.08.23.08.07 0 .12 0 .17-.04.04-.03.08-.06.1-.1.03-.05.04-.1.06-.16V20.5h.33v1.57c0 .08 0 .16-.03.25 0 .1-.05.17-.1.24-.04.08-.1.14-.2.2-.07.04-.18.06-.32.06-.16 0-.3-.04-.4-.13-.12-.1-.2-.22-.22-.36l.3-.08zm2.62-.4l-.04-.16-.08-.14-.14-.1-.18-.02c-.06 0-.12 0-.18.03l-.15.1c-.04.03-.07.08-.1.13s-.04.1-.05.17h.9zm.3.13v.09h-1.22c0 .06.02.12.05.17.02.06.06.1.1.15.05.04.1.08.16.1.05.02.1.03.18.03.1 0 .2-.02.26-.06.08-.06.14-.1.18-.18l.2.17c-.07.1-.17.18-.28.23-.1.05-.23.07-.36.07-.12 0-.23 0-.32-.05-.1-.04-.2-.1-.26-.16-.07-.08-.12-.17-.16-.27-.04-.1-.06-.2-.06-.32 0-.1 0-.22.05-.32.04-.1.1-.18.17-.25s.15-.13.25-.17c.1-.04.2-.06.3-.06.12 0 .22.02.3.06.1.03.18.1.24.15.06.08.1.17.14.26.03.1.05.2.05.33zm1.23-.37c-.03-.06-.08-.1-.14-.14-.07-.04-.14-.06-.22-.06h-.1l-.1.05c-.02 0-.04.02-.06.05-.02.02-.02.05-.02.1s.03.1.08.13l.26.1c.08 0 .14.02.2.05.07.02.12.05.17.08.05.05.1.1.1.14.04.05.05.1.05.17 0 .1 0 .18-.05.24-.03.06-.08.1-.14.15-.05.03-.12.06-.2.08-.06.02-.14.02-.2.02-.13 0-.24-.02-.35-.06-.1-.05-.2-.12-.27-.2l.22-.2c.04.07.1.12.17.16.07.04.15.06.23.06h.1l.1-.05c.04 0 .06-.03.08-.05.02-.03.02-.07.02-.1 0-.08-.03-.13-.1-.17l-.3-.1c-.04 0-.1-.02-.15-.04l-.14-.07c-.04-.04-.08-.08-.1-.13-.03-.04-.05-.1-.05-.17 0-.08.03-.15.06-.2.04-.07.08-.12.13-.16.05-.02.1-.05.18-.07l.2-.03c.12 0 .22.02.32.07.1.04.18.1.24.18l-.2.18zm1.42 0c-.03-.06-.08-.1-.14-.14-.05-.04-.12-.06-.2-.06h-.1l-.1.05c-.02 0-.04.02-.06.05l-.02.1c0 .05.03.1.1.13.04.03.13.06.25.1.07 0 .14.02.2.05l.16.08c.05.05.08.1.1.14.03.05.05.1.05.17 0 .1-.02.18-.06.24-.03.06-.08.1-.13.15l-.2.08c-.08.02-.15.02-.23.02-.12 0-.23-.02-.34-.06-.1-.05-.2-.12-.27-.2l.2-.2c.05.07.1.12.18.16.07.04.15.06.24.06h.1l.1-.05c.03 0 .05-.03.07-.05.02-.03.03-.07.03-.1 0-.08-.04-.13-.1-.17l-.3-.1c-.05 0-.1-.02-.16-.04l-.14-.07c-.04-.04-.08-.08-.1-.13-.03-.04-.04-.1-.04-.17 0-.08 0-.15.05-.2.02-.07.06-.12.12-.16.05-.02.1-.05.18-.07l.2-.03c.12 0 .23.02.33.07.1.04.18.1.23.18l-.2.18zm.9 1.13h-.3v-1.52h.3v1.52zm.06-2.06c0 .05 0 .1-.05.13-.04.04-.08.06-.14.06-.04 0-.1-.03-.13-.07-.04-.04-.06-.08-.06-.13 0-.06.03-.1.07-.14.04-.04.1-.06.14-.06.07 0 .1.02.15.06.04.03.06.08.06.14zm1.55.93c-.03-.05-.08-.1-.14-.12-.06-.03-.13-.04-.2-.04-.08 0-.15 0-.2.04-.07.03-.12.07-.16.12-.05.05-.08.1-.1.18-.02.06-.04.13-.04.2 0 .08.02.15.04.2.02.08.05.14.1.2.04.04.1.08.15.1.06.04.13.05.2.05.08 0 .15 0 .2-.04.08-.02.13-.06.17-.1l.2.17c-.06.07-.14.13-.24.17-.1.04-.2.06-.33.06-.1 0-.22 0-.32-.05-.1-.04-.2-.1-.26-.16-.07-.08-.13-.17-.17-.27-.04-.1-.06-.2-.06-.33 0-.12 0-.22.05-.32.04-.1.1-.2.17-.26.07-.07.16-.12.26-.16.1-.04.2-.06.32-.06.1 0 .2.02.32.07.1.04.2.1.25.18l-.22.18zm1.47.15c0-.1-.04-.2-.1-.25-.08-.06-.17-.08-.28-.08-.08 0-.17 0-.24.05-.08.03-.14.07-.2.12l-.15-.2c.07-.06.16-.12.27-.16.1-.04.23-.06.35-.06.1 0 .2.02.28.05.08.03.15.07.2.13.05.05.1.1.12.18l.03.24V22.62c0 .06.02.1.03.14h-.28l-.02-.2c-.07.07-.14.13-.22.17-.08.05-.18.07-.3.07-.05 0-.1 0-.18-.02-.06-.02-.12-.04-.18-.08-.05-.04-.1-.1-.13-.15-.02-.05-.04-.13-.04-.22 0-.1.03-.2.1-.27.05-.07.13-.12.23-.15s.2-.05.33-.06l.4-.02v-.04zm-.08.26h-.23c-.07 0-.14.03-.2.05-.07 0-.13.04-.17.07-.04.04-.06.1-.06.16 0 .04 0 .08.02.1 0 .04.03.06.06.08.03.03.07.05.1.05h.12c.14 0 .25-.03.32-.1.08-.1.12-.2.12-.33v-.08h-.08zm2.8-1.13c-.03-.05-.1-.1-.17-.14-.08-.04-.16-.06-.26-.06-.04 0-.1 0-.15.02l-.14.07-.1.1c-.02.05-.03.1-.03.17 0 .06 0 .1.03.16l.1.1.15.08.18.07.24.08c.08.03.15.07.2.12.08.05.13.1.17.18.04.08.06.17.06.28 0 .12-.02.22-.07.3-.04.1-.1.17-.17.22-.07.06-.16.1-.25.13-.1.03-.2.04-.3.04-.13 0-.27-.03-.4-.08-.13-.06-.25-.14-.33-.25l.24-.22c.07.08.14.15.23.2.1.04.2.07.3.07.04 0 .1 0 .15-.02l.15-.07c.04-.04.08-.08.1-.12.03-.05.05-.1.05-.18 0-.07-.02-.12-.05-.17-.03-.06-.07-.1-.1-.13-.06-.03-.12-.06-.2-.08l-.2-.08-.2-.08c-.08-.03-.14-.07-.2-.12-.05-.04-.1-.1-.13-.17-.04-.07-.05-.16-.05-.27 0-.1.02-.2.07-.3.04-.07.1-.14.18-.2.07-.04.15-.08.25-.1.1-.03.18-.04.28-.04.13 0 .25.02.37.07.1.05.2.12.28.2l-.23.2zm1.06 1.67c0 .06-.02.1-.06.15-.04.04-.1.06-.15.06-.07 0-.12-.02-.16-.06-.05-.04-.07-.1-.07-.15 0-.05.02-.1.07-.14.04-.05.1-.07.15-.07.05 0 .1.02.14.06.04.04.06.1.06.15z" fill="#9B9B9B"/><path d="M171.1 24.2h-.3v-2h-.74v-.28h1.77v.28h-.73v2zm1.82-.9c0-.07 0-.12-.03-.17-.03-.06-.05-.1-.1-.14-.02-.05-.07-.08-.12-.1-.05-.02-.1-.04-.18-.04-.07 0-.13.02-.2.04-.04.02-.1.05-.13.1-.04.03-.08.07-.1.13-.03.05-.05.1-.05.16h.9zm.3.12v.1h-1.2c0 .06 0 .12.04.18l.1.15.16.1c.06.02.13.03.2.03.1 0 .18-.02.26-.07.07-.03.13-.1.17-.15l.22.17c-.1.1-.18.18-.3.23-.1.05-.22.08-.36.08-.1 0-.2-.02-.3-.06-.1-.04-.2-.1-.26-.16-.07-.06-.13-.14-.17-.24-.04-.1-.06-.2-.06-.33 0-.12.03-.22.07-.32.04-.1.1-.18.17-.25s.15-.12.25-.16c.08-.05.18-.07.3-.07.1 0 .2 0 .3.05.1.04.17.1.23.16.06.07.1.15.15.25.03.08.05.2.05.32zm.77-.03l-.57-.73h.37l.38.52.37-.53h.35l-.55.72.62.8h-.38l-.43-.6-.43.6h-.36l.6-.8zm2-.48h-.4v.8c0 .08 0 .14.04.18.04.04.1.06.17.06h.1c.03 0 .06-.02.08-.04v.25l-.1.03h-.14c-.15 0-.26-.03-.33-.1-.07-.08-.1-.2-.1-.36v-.82h-.3v-.25h.3v-.44h.3v.44h.4v.25zm1.44 1h1.2v.27h-1.52V21.9h1.46v.28h-1.14v.68h1.07v.27h-1.06v.76zm2.8.03c-.05.1-.13.16-.23.2-.1.06-.2.08-.3.08-.12 0-.23-.02-.32-.06-.1-.04-.17-.1-.24-.17-.07-.08-.12-.16-.15-.26-.05-.1-.07-.2-.07-.32 0-.1.02-.2.06-.3.02-.1.07-.2.14-.26.07-.08.15-.13.24-.17.1-.05.2-.07.3-.07.14 0 .25.02.34.08.1.06.16.12.22.2v-1.14h.3v2.43h-.3v-.25zm-1-.53c0 .08.02.14.04.2.02.08.05.13.1.2.04.04.1.08.15.1.06.04.14.06.22.06.08 0 .15-.02.2-.05.07-.03.13-.07.17-.12.05-.04.08-.1.1-.16.03-.07.04-.14.04-.2 0-.08 0-.15-.04-.22-.02-.07-.05-.13-.1-.18-.04-.05-.1-.1-.16-.12-.06-.03-.13-.04-.2-.04-.1 0-.17 0-.23.04-.06.03-.1.07-.16.12-.04.05-.07.1-.1.18l-.02.2zm2.13.77h-.3v-1.53h.3v1.52zm.05-2.08c0 .06-.02.1-.05.14-.04.03-.1.05-.15.05-.05 0-.1 0-.14-.04-.04-.04-.06-.1-.06-.14 0-.06.02-.1.06-.14.04-.04.1-.06.14-.06.06 0 .1.02.15.06.03.04.05.08.05.14zm1.22.8h-.4v.8c0 .08.02.14.05.18.02.04.08.06.15.06h.1c.03 0 .05-.02.08-.04v.25l-.1.03h-.15c-.14 0-.25-.03-.33-.1-.07-.08-.1-.2-.1-.36v-.82h-.3v-.25h.3v-.44h.3v.44h.4v.25zm1.85.5c0 .12-.03.23-.07.33-.04.1-.1.18-.17.25-.08.07-.16.13-.27.17-.1.04-.2.06-.33.06-.1 0-.22-.02-.32-.06-.1-.04-.2-.1-.26-.17-.08-.07-.14-.15-.18-.25-.05-.1-.07-.2-.07-.33 0-.1.02-.22.07-.32.04-.1.1-.18.17-.25.06-.07.15-.12.25-.16.1-.05.2-.07.32-.07s.22.02.32.06c.1.03.18.08.26.15.07.07.13.16.17.25.04.1.06.2.06.32zm-.32 0c0-.07 0-.14-.04-.2-.02-.07-.05-.13-.1-.18-.04-.05-.1-.1-.15-.12-.08-.03-.15-.04-.23-.04-.08 0-.15 0-.22.04-.06.03-.1.07-.15.12-.05.05-.08.1-.1.18-.02.06-.04.13-.04.2 0 .08.02.15.04.2.02.08.05.14.1.2.04.04.1.08.15.1.07.04.14.06.22.06.08 0 .15-.02.22-.05l.15-.12c.04-.04.07-.1.1-.17.02-.06.03-.13.03-.2zm.73-.42v-.16-.17h.28v.25h.02c.05-.08.1-.16.2-.2.07-.07.17-.1.27-.1.04 0 .08 0 .12.02l-.03.28-.13-.02c-.08 0-.14.02-.2.04-.05.03-.1.06-.13.1-.02.05-.05.1-.06.17-.02.06-.03.13-.03.2v.8h-.3V23zM200.93 21.92h.78c.16 0 .3.02.45.06.14.05.28.1.4.2.1.1.2.2.28.36.07.14.1.3.1.5s-.03.38-.1.52-.17.26-.3.35c-.1.1-.24.17-.38.22-.15.04-.3.07-.44.07h-.77V21.9zm.32 2h.4c.14 0 .26-.03.38-.07.12-.04.22-.1.3-.17.08-.07.15-.16.2-.26.04-.1.07-.23.07-.37 0-.14-.03-.26-.07-.37-.05-.1-.12-.2-.2-.27-.08-.06-.18-.1-.3-.15-.12-.04-.24-.06-.38-.06h-.4v1.7zm3.65-.5c0 .12-.03.23-.07.33-.04.1-.1.18-.17.25s-.16.13-.26.17c-.1.04-.2.06-.33.06-.1 0-.22-.02-.32-.06-.1-.04-.2-.1-.26-.17-.08-.07-.14-.15-.18-.25-.04-.1-.06-.2-.06-.33 0-.1.02-.22.06-.32.04-.1.1-.18.17-.25.06-.07.15-.12.25-.16.1-.05.2-.07.32-.07s.23.02.33.06c.1.03.2.08.26.15.07.07.13.16.17.25.04.1.07.2.07.32zm-.32 0c0-.07 0-.14-.03-.2-.02-.07-.06-.13-.1-.18-.04-.05-.1-.1-.16-.12-.07-.03-.14-.04-.23-.04-.08 0-.15 0-.2.04-.07.03-.13.07-.17.12-.04.05-.08.1-.1.18-.02.06-.03.13-.03.2 0 .08 0 .15.03.2.02.08.06.14.1.2.04.04.1.08.16.1.06.04.13.06.2.06.1 0 .17-.02.23-.05l.15-.12c.04-.04.08-.1.1-.17.02-.06.03-.13.03-.2zm1.8-.37c-.04-.05-.08-.1-.15-.12-.06-.03-.13-.05-.2-.05-.08 0-.15 0-.2.04-.07.03-.13.07-.17.13l-.1.17-.03.2c0 .08 0 .15.03.22l.1.17c.04.06.1.1.16.13s.13.05.2.05c.1 0 .16-.02.22-.05.06-.03.1-.07.16-.12l.2.2c-.07.07-.15.13-.24.17-.1.04-.2.06-.33.06-.12 0-.23-.02-.33-.06-.1-.04-.18-.1-.25-.16-.08-.06-.13-.14-.17-.24-.05-.1-.07-.2-.07-.33 0-.12.03-.23.07-.33.04-.1.1-.18.17-.25.08-.07.16-.13.26-.17.1-.03.2-.05.32-.05.1 0 .22.02.32.06.1.03.2.1.25.18l-.22.17zm1.6 1.14c-.02-.05-.02-.1-.02-.14v-.12c-.05.08-.12.15-.2.2-.1.06-.2.1-.3.1-.1 0-.2-.03-.27-.06-.08-.03-.14-.08-.18-.13-.05-.06-.08-.12-.1-.2-.03-.07-.04-.15-.04-.24v-.93h.3v.84c0 .07 0 .13.02.2 0 .04.03.1.05.14l.1.1c.05.02.1.04.18.04.12 0 .22-.05.3-.14.07-.1.1-.2.1-.36v-.8h.3V24l.02.17h-.28zm1.08-1.28c.03-.08.1-.15.18-.2.08-.06.18-.1.3-.1.1 0 .2.03.28.08.08.04.14.12.2.23.04-.1.1-.17.2-.22.1-.05.2-.07.3-.07.1 0 .2 0 .26.05.07.03.13.07.18.13.04.07.08.13.1.2.02.08.03.16.03.25v.94h-.3v-.86c0-.06 0-.12-.02-.17 0-.06-.03-.1-.06-.15-.02-.04-.06-.08-.1-.1-.04-.03-.1-.04-.16-.04-.07 0-.13 0-.18.04-.05.03-.1.07-.12.12-.03.04-.05.1-.07.15-.02.05-.03.1-.03.17v.82h-.3v-.92c0-.06 0-.1-.02-.16 0-.05-.02-.1-.05-.13l-.1-.1-.15-.02c-.1 0-.2.05-.28.14-.07.1-.1.2-.1.36v.8h-.3V23v-.16l-.02-.17h.28v.13l.02.12zm3.66.37c0-.07-.02-.12-.04-.17 0-.06-.04-.1-.08-.14-.03-.05-.07-.08-.13-.1-.05-.02-.1-.04-.18-.04-.08 0-.14.02-.2.04-.05.02-.1.05-.14.1-.04.03-.08.07-.1.13-.03.05-.04.1-.05.16h.92zm.3.12v.1h-1.2c0 .06 0 .12.03.18l.1.15.17.1.18.03c.1 0 .2-.02.27-.07.08-.03.13-.1.18-.15l.2.17c-.07.1-.17.18-.28.23-.1.05-.23.08-.37.08-.1 0-.22-.02-.32-.06-.1-.04-.18-.1-.25-.16s-.12-.14-.17-.24c-.04-.1-.06-.2-.06-.33 0-.12.02-.22.06-.32.04-.1.1-.18.17-.25s.15-.12.25-.16c.1-.05.2-.07.3-.07.12 0 .22 0 .3.05.1.04.18.1.24.16.07.07.1.15.15.25.03.08.05.2.05.32zm.7-.75v.25l.1-.12.1-.1c.05 0 .1-.04.15-.05.05-.02.1-.02.16-.02.1 0 .18 0 .25.05.07.03.13.07.18.13.04.07.08.13.1.2.02.08.04.16.04.25v.94h-.3v-.86c0-.06 0-.12-.02-.17 0-.06-.03-.1-.05-.15-.03-.04-.06-.08-.1-.1-.05-.03-.1-.04-.18-.04-.12 0-.22.05-.3.14-.07.1-.1.2-.1.36v.8h-.3V23v-.16c-.02-.07-.02-.12-.02-.17h.28zm2.33.25h-.4v.8c0 .08 0 .14.05.18.03.04.08.06.16.06h.1l.08-.04v.25l-.12.03h-.13c-.15 0-.26-.03-.34-.1-.08-.08-.1-.2-.1-.36v-.82h-.3v-.25h.3v-.44h.28v.44h.4v.25zm2.25-.58c-.04-.06-.1-.1-.18-.15-.08-.05-.16-.07-.26-.07-.05 0-.1 0-.15.02-.05 0-.1.03-.14.06l-.1.13c-.03.05-.04.1-.04.17 0 .06 0 .1.04.15.02.04.05.08.1.1.04.04.1.06.14.08l.18.06.24.07c.08.03.15.07.2.12.08.04.13.1.17.18.03.07.05.16.05.28 0 .1-.02.22-.06.3-.06.1-.12.16-.2.22-.06.05-.15.1-.24.12-.1.03-.2.05-.3.05-.14 0-.28-.03-.4-.1-.14-.04-.25-.13-.34-.23l.25-.2c.05.07.12.13.2.18.1.05.2.07.3.07.06 0 .1 0 .16-.02.06 0 .1-.04.15-.07.04-.03.08-.07.1-.12.03-.05.05-.1.05-.17 0-.08-.02-.14-.05-.2l-.1-.1-.18-.1c-.07 0-.14-.03-.2-.05l-.23-.08c-.07-.03-.13-.07-.18-.12-.07-.05-.12-.1-.15-.18-.03-.07-.05-.16-.05-.26s.02-.2.07-.28c.04-.08.1-.15.18-.2.07-.06.15-.1.25-.12.1-.03.18-.04.28-.04.13 0 .25.02.37.07s.2.1.28.2l-.23.2zm1 .56c.03-.08.1-.14.18-.2.1-.05.2-.07.3-.07.1 0 .18 0 .25.05.07.03.13.07.18.13.06.07.1.13.1.2.03.08.05.16.05.25v.94h-.3v-.85c0-.06 0-.12-.02-.18 0-.05-.03-.1-.05-.15l-.1-.1c-.05-.02-.1-.04-.18-.04-.12 0-.22.05-.3.14-.07.1-.1.2-.1.36v.8h-.3v-2.42h.3v1.14zm2.5.3c0-.1-.03-.2-.1-.25-.07-.05-.16-.08-.27-.08-.1 0-.17.02-.25.05-.07.03-.14.08-.2.13l-.15-.2c.08-.07.17-.12.28-.16.1-.05.23-.07.35-.07.1 0 .2 0 .3.04.07.03.13.08.2.13.04.05.08.12.1.2.03.06.04.14.04.22V24.18h-.26l-.03-.23c-.05.08-.12.14-.2.2-.1.03-.2.06-.3.06-.07 0-.13 0-.2-.03-.06 0-.12-.04-.17-.08-.05-.03-.1-.08-.13-.14-.04-.06-.06-.13-.06-.22 0-.12.03-.2.1-.28.06-.06.14-.1.24-.15.1-.03.2-.06.34-.07h.38v-.06zm-.07.26h-.24l-.22.05c-.07.03-.12.06-.16.1-.05.04-.07.1-.07.15 0 .05 0 .08.03.1l.07.1.1.03h.1c.15 0 .26-.03.34-.12.06-.08.1-.2.1-.32v-.08h-.07zm.86-.46v-.16l-.02-.17h.28v.13c.02.05.02.1.02.12.05-.08.1-.16.2-.2.08-.07.17-.1.27-.1.05 0 .1 0 .12.02v.28l-.15-.02c-.07 0-.14.02-.2.04-.04.03-.1.06-.12.1-.04.05-.06.1-.08.17-.02.06-.03.13-.03.2v.8h-.3V23zm1.46 1.2h-.3v-1.53h.3v1.52zm.05-2.08c0 .06 0 .1-.05.14-.04.03-.1.05-.14.05-.05 0-.1 0-.13-.04-.04-.04-.06-.1-.06-.14 0-.06.03-.1.07-.14.03-.04.08-.06.14-.06.06 0 .1.02.15.06.04.04.06.08.06.14zm.76.55v.25h.02c.02-.04.04-.08.08-.12l.1-.1c.05 0 .1-.04.15-.05.06-.02.12-.02.17-.02.1 0 .18 0 .25.05.07.03.13.07.18.13.05.07.08.13.1.2.03.08.04.16.04.25v.94h-.3v-.86c0-.06 0-.12-.02-.17 0-.06-.02-.1-.05-.15-.03-.04-.06-.08-.1-.1-.05-.03-.1-.04-.18-.04-.13 0-.23.05-.3.14-.08.1-.12.2-.12.36v.8h-.3V23v-.16-.17h.28zm1.7 1.78c.07.07.16.13.25.18.1.04.22.06.32.06s.2-.02.25-.05c.07-.03.13-.07.17-.12.04-.05.07-.1.1-.18l.02-.22v-.2c-.07.1-.14.16-.24.2-.1.05-.2.07-.3.07-.12 0-.23-.02-.32-.06-.1-.04-.18-.1-.24-.17-.07-.07-.12-.15-.16-.25-.03-.1-.05-.2-.05-.3 0-.1.02-.2.05-.3.04-.1.1-.2.16-.26.06-.07.14-.13.24-.17.1-.05.2-.07.3-.07.12 0 .22.02.32.07.1.04.18.12.24.2v-.23h.3v1.44c0 .12-.02.23-.04.33-.03.1-.08.2-.15.27-.06.08-.15.14-.25.2-.1.03-.24.06-.4.06-.13 0-.27-.03-.4-.08-.13-.04-.25-.1-.35-.2l.2-.23zm.1-1.04c0 .08 0 .15.03.2.02.08.05.13.1.18.04.05.1.1.15.12.06.03.13.05.2.05.1 0 .16-.02.22-.04.07-.02.12-.06.17-.1.04-.06.08-.1.1-.18.03-.06.04-.13.04-.2 0-.08 0-.15-.04-.2-.02-.08-.06-.13-.1-.18-.05-.05-.1-.1-.17-.12-.06-.03-.13-.04-.2-.04-.1 0-.16 0-.22.04-.06.03-.1.07-.16.12-.05.04-.08.1-.1.17-.03.07-.04.14-.04.2z" fill="#4A4A4A"/><path d="M136.65 28.75h23.15" stroke="#5CB85C" stroke-width=".53" stroke-linecap="square"/><path fill="#F3F5F7" fill-rule="nonzero" d="M236.62 80.48h72.46v96.68h-72.46z"/><path fill="#FFF" fill-rule="nonzero" d="M236.8 166.12h72.3v11.04h-72.3z"/><rect fill="#FFF" fill-rule="nonzero" x="239.47" y="83.33" width="37.21" height="11.22" rx="2.14"/><rect fill="#03A8DF" fill-rule="nonzero" x="261.19" y="97.39" width="45.76" height="6.77" rx="2.14"/><path d="M249.3 73.87l.67-1.74h.5v2.27h-.33v-1.9l-.76 1.9h-.2l-.75-1.9v1.9h-.3v-2.27h.48l.7 1.74zm2.27.2l.43-1.2h.32l-.74 1.9-.08.16-.1.13-.15.08c-.06.02-.12.03-.2.03h-.1l-.1-.03.04-.26.14.02c.08 0 .13-.02.17-.06.05-.05.1-.1.12-.2l.1-.24-.66-1.52h.34l.47 1.2zm1.35.33h-.3v-2.43h.3v2.43zm1.64-.9c0-.06-.02-.1-.04-.17 0-.05-.04-.1-.08-.13-.03-.04-.07-.07-.13-.1-.04-.02-.1-.03-.17-.03s-.13 0-.18.04l-.15.1c-.04.04-.08.08-.1.13-.03.06-.04.1-.05.17h.9zm.3.12v.11h-1.2c0 .06 0 .12.03.18.02.06.06.1.1.16l.16.1.18.03c.1 0 .2-.03.27-.08.1-.04.14-.1.2-.16l.2.17c-.08.1-.18.18-.3.23-.1.05-.22.08-.36.08-.1 0-.22-.02-.32-.06-.1-.04-.18-.1-.25-.16-.07-.07-.12-.15-.17-.25-.04-.1-.06-.2-.06-.33 0-.12.02-.23.06-.32.04-.1.1-.2.17-.26.07-.07.15-.13.25-.16.1-.04.2-.06.3-.06.12 0 .22 0 .3.05.1.03.18.08.24.15.07.07.1.15.15.25.04.1.06.2.06.32zm1.24-.36c-.03-.05-.08-.1-.14-.13-.07-.04-.14-.06-.2-.06h-.12l-.1.05c0 .02-.03.04-.05.06-.03.03-.03.06-.03.1 0 .06.02.1.08.13.06.05.15.07.26.1l.2.06c.08.02.13.05.18.1.04.02.08.07.1.1.03.06.04.12.04.2 0 .08-.02.15-.05.22-.03.06-.08.1-.14.15-.05.04-.12.07-.2.08-.06.03-.14.04-.2.04-.13 0-.24-.02-.35-.07-.1-.04-.2-.1-.28-.2l.22-.2c.04.07.1.12.17.16.06.04.14.06.22.06.04 0 .08 0 .1-.02.05 0 .08-.02.1-.03.04-.02.06-.04.08-.07l.02-.1c0-.08-.03-.13-.1-.16-.07-.04-.16-.07-.3-.1-.05 0-.1-.03-.15-.05-.05 0-.1-.04-.14-.07-.05-.03-.08-.07-.1-.12-.03-.05-.05-.1-.05-.18 0-.08.02-.15.05-.2.04-.07.08-.12.13-.15l.2-.1h.2c.1 0 .2 0 .3.05.1.04.2.1.25.2l-.2.16zm1.42-1.13h.32v.95h1.14v-.95h.32v2.27h-.32v-1.04h-1.14v1.04h-.32v-2.27zm2.7 2.07c0 .06-.03.1-.07.15-.04.04-.1.07-.15.07-.06 0-.1-.02-.16-.07-.04-.04-.06-.1-.06-.14 0-.05.02-.1.06-.14.04-.04.1-.06.16-.06s.1.02.15.06c.04.04.06.1.06.14z" fill="#000"/><path d="M262.3 73.1c.04-.07.1-.13.2-.18.08-.06.18-.08.3-.08.1 0 .17 0 .24.05.07.02.13.06.18.12.04.05.08.12.1.2.02.07.04.15.04.23v.95h-.3v-.84c0-.06 0-.12-.02-.18 0-.05-.03-.1-.05-.15l-.12-.1c-.04-.02-.1-.04-.17-.04-.1 0-.2.04-.28.13-.08.1-.12.2-.12.36v.8h-.3v-2.43h.3v1.14zm2.5.3c0-.1-.02-.18-.1-.24-.06-.05-.15-.08-.26-.08-.1 0-.17.02-.25.05-.08.03-.15.07-.2.13l-.16-.2c.08-.07.17-.12.28-.16.1-.04.22-.06.34-.06.1 0 .2 0 .3.04.07.03.13.08.2.13l.1.2c.03.07.04.15.04.23V74.26c0 .05 0 .1.02.14h-.27l-.03-.22c-.06.08-.13.14-.22.2-.08.03-.18.06-.3.06-.06 0-.12 0-.18-.03-.07 0-.13-.03-.18-.07-.05-.03-.1-.08-.13-.14-.03-.07-.05-.15-.05-.23 0-.12.03-.2.1-.28.06-.07.14-.13.24-.16.1-.04.2-.06.33-.07l.38-.02v-.04zm-.06.27h-.24l-.2.05c-.08.02-.13.05-.18.1-.04.03-.06.08-.06.14 0 .05 0 .08.03.1 0 .04.03.07.06.1l.1.03h.1c.15 0 .26-.04.34-.13.07-.08.1-.2.1-.32v-.08h-.06zm1.68-.4c-.03-.06-.08-.1-.14-.14-.06-.04-.13-.06-.2-.06h-.1l-.1.05-.07.06v.1c0 .06.02.1.07.13.06.05.15.07.26.1l.2.06c.07.02.12.05.17.1.04.02.08.07.1.1.03.06.04.12.04.2 0 .08 0 .15-.05.22-.04.06-.1.1-.14.15-.06.04-.12.07-.2.08-.07.03-.14.04-.22.04-.12 0-.23-.02-.34-.07-.1-.04-.2-.1-.27-.2l.2-.2c.05.07.1.12.18.16.08.04.16.06.24.06.04 0 .08 0 .12-.02l.1-.03.06-.07c.02-.03.03-.06.03-.1 0-.08-.04-.13-.1-.16-.07-.04-.17-.07-.3-.1-.05 0-.1-.03-.16-.05-.06 0-.1-.04-.15-.07-.04-.03-.08-.07-.1-.12-.03-.05-.04-.1-.04-.18 0-.08.02-.15.06-.2.03-.07.07-.12.13-.15.04-.04.1-.07.17-.1h.2c.12 0 .22 0 .33.05.1.04.18.1.23.2l-.2.16zm1.08 1.62h.12c.05 0 .08 0 .1-.02.04-.02.06-.04.07-.07l.02-.1V72.9h.3v1.93c-.02.08-.05.14-.08.2-.04.05-.1.1-.15.12-.08.03-.16.05-.26.05h-.1l-.07-.02.03-.26zm.7-2.57c0 .06-.03.1-.07.14-.04.03-.1.05-.15.05-.05 0-.1-.02-.14-.05-.04-.04-.06-.1-.06-.14 0-.06.02-.1.06-.14.04-.05.1-.07.14-.07.06 0 .1.02.15.06.04.03.06.07.06.13zm2 1.3c0 .12-.02.23-.06.33-.05.1-.1.18-.18.25-.07.08-.16.14-.26.18-.1.04-.2.06-.32.06s-.23-.02-.33-.06c-.1-.04-.18-.1-.26-.17-.08-.06-.14-.14-.18-.24-.04-.1-.06-.2-.06-.33 0-.1.02-.22.06-.32.04-.1.1-.17.17-.24.07-.07.15-.13.25-.16.1-.04.2-.06.33-.06.1 0 .22.02.32.06.1.03.2.1.26.16.08.07.13.15.18.25.04.1.06.22.06.33zm-.32 0c0-.07 0-.14-.03-.2-.02-.07-.05-.13-.1-.18-.04-.05-.1-.1-.16-.12-.07-.03-.14-.04-.22-.04-.08 0-.16 0-.22.03s-.1.07-.16.12c-.04.05-.07.1-.1.18-.02.06-.03.13-.03.2 0 .08 0 .15.03.2l.1.2c.05.04.1.08.16.1.06.04.14.06.22.06.08 0 .15-.03.2-.06.08-.03.13-.07.17-.12.05-.05.08-.1.1-.18.02-.06.03-.13.03-.2zm1.04.77h-.3v-1.52h.3v1.52zm.05-2.07c0 .06-.02.1-.06.14-.03.03-.08.05-.13.05-.06 0-.1-.02-.14-.05-.04-.04-.06-.1-.06-.14 0-.06.02-.1.06-.14.04-.05.08-.07.14-.07.05 0 .1.02.14.06.05.03.07.07.07.13zm.75.55v.26h.02c.02-.04.04-.08.08-.12l.1-.08.15-.06c.05-.02.1-.02.16-.02.1 0 .2 0 .26.05.06.02.12.06.16.12.05.05.08.12.1.2.03.07.04.15.04.23v.95h-.3v-.85c0-.06 0-.12-.02-.17 0-.06-.02-.1-.05-.15-.02-.04-.06-.08-.1-.1-.05-.03-.1-.04-.18-.04-.12 0-.2.03-.3.13-.07.1-.1.2-.1.36v.8h-.3v-1.2-.15c0-.07 0-.12-.02-.17h.3zm2.7.62c0-.06 0-.1-.03-.17-.03-.05-.05-.1-.1-.13-.02-.04-.07-.07-.12-.1-.05-.02-.1-.03-.18-.03-.07 0-.13 0-.2.04-.04.03-.1.06-.13.1-.04.04-.08.08-.1.13-.03.06-.05.1-.05.17h.9zm.3.12v.11h-1.2c0 .06 0 .12.04.18l.1.16.16.1c.06.02.13.03.2.03.1 0 .18-.03.26-.08.07-.04.13-.1.17-.16l.22.17c-.1.1-.18.18-.3.23-.1.05-.22.08-.36.08-.1 0-.2-.02-.3-.06-.1-.04-.2-.1-.26-.16-.07-.07-.13-.15-.17-.25-.04-.1-.06-.2-.06-.33 0-.12.03-.23.07-.32.04-.1.1-.2.16-.26.08-.07.16-.13.25-.16.1-.04.2-.06.32-.06.1 0 .2 0 .3.05.1.03.17.08.23.15.06.07.1.15.15.25.03.1.05.2.05.32zm1.64.54c-.06.1-.14.16-.24.2-.1.05-.2.08-.3.08-.13 0-.23-.02-.33-.06-.1-.05-.18-.1-.25-.18-.06-.07-.12-.15-.15-.25-.04-.1-.06-.2-.06-.32 0-.1.02-.2.06-.3.03-.1.1-.2.15-.26.07-.08.15-.13.25-.17.1-.04.2-.06.3-.06.13 0 .24.02.33.07.1.07.16.13.22.2v-1.13h.3v2.43h-.3v-.24zm-1-.53c0 .07 0 .14.03.2 0 .08.04.13.1.2.03.04.08.08.14.1.06.04.14.06.22.06.08 0 .15-.03.2-.06.07-.03.13-.07.17-.12.05-.05.08-.1.1-.17.03-.07.04-.14.04-.2 0-.1 0-.15-.03-.22s-.06-.13-.1-.18c-.05-.05-.1-.1-.17-.12-.06-.03-.13-.04-.2-.04-.1 0-.17 0-.23.03s-.1.07-.15.12c-.06.05-.1.1-.1.18-.03.07-.04.13-.04.2zm3.37-.5h-.4v.8c0 .08 0 .14.04.18.04.05.1.07.17.07h.1l.07-.04.02.25-.12.03c-.04.02-.1.02-.13.02-.15 0-.26-.04-.33-.12-.08-.08-.12-.2-.12-.35v-.83h-.3v-.24h.3v-.44h.3v.44h.4v.24zm.62-.02c.04-.07.1-.13.2-.18.07-.06.17-.08.28-.08.1 0 .18 0 .25.05.08.02.13.06.18.12.05.05.08.12.1.2.03.07.04.15.04.23v.95h-.3v-.84c0-.06 0-.12-.02-.18 0-.05-.02-.1-.05-.15l-.1-.1c-.05-.02-.1-.04-.18-.04-.1 0-.2.04-.3.13-.07.1-.1.2-.1.36v.8h-.3v-2.43h.3v1.14zm2.67.4c0-.06 0-.1-.03-.17-.03-.05-.05-.1-.1-.13-.03-.04-.07-.07-.12-.1-.05-.02-.12-.03-.2-.03-.05 0-.1 0-.17.04-.04.03-.1.06-.13.1-.05.04-.08.08-.1.13-.03.06-.05.1-.05.17h.9zm.3.12v.11h-1.2c0 .06 0 .12.04.18l.1.16.16.1c.06.02.12.03.2.03.1 0 .18-.03.26-.08.07-.04.13-.1.17-.16l.2.17c-.07.1-.16.18-.27.23-.1.05-.23.08-.37.08-.1 0-.2-.02-.3-.06-.1-.04-.2-.1-.26-.16-.07-.07-.13-.15-.17-.25-.04-.1-.06-.2-.06-.33 0-.12.03-.23.07-.32.04-.1.1-.2.16-.26.07-.07.16-.13.25-.16.1-.04.2-.06.3-.06.13 0 .23 0 .32.05.1.03.16.08.23.15.06.07.1.15.14.25.04.1.06.2.06.32zm1.53.78h-.3v-2.43h.3v2.43zm1.64-.9c0-.06-.02-.1-.04-.17-.02-.05-.04-.1-.08-.13-.03-.04-.08-.07-.13-.1-.05-.02-.1-.03-.18-.03-.07 0-.13 0-.2.04-.04.03-.1.06-.13.1-.04.04-.08.08-.1.13-.03.06-.05.1-.05.17h.9zm.3.12v.11h-1.2c0 .06 0 .12.03.18l.1.16.16.1c.05.02.12.03.18.03.1 0 .2-.03.27-.08.07-.04.13-.1.17-.16l.22.17c-.1.1-.18.18-.3.23-.1.05-.22.08-.36.08-.1 0-.22-.02-.32-.06-.1-.04-.18-.1-.25-.16-.06-.07-.12-.15-.16-.25-.04-.1-.06-.2-.06-.33 0-.12.02-.23.06-.32.04-.1.1-.2.16-.26.07-.07.16-.13.25-.16.1-.04.2-.06.32-.06.1 0 .2 0 .3.05.1.03.17.08.23.15.06.07.1.15.14.25.04.1.06.2.06.32zm1.24-.36c-.04-.05-.1-.1-.15-.13-.07-.04-.14-.06-.22-.06h-.1l-.1.05-.05.06c-.02.03-.03.06-.03.1 0 .06.03.1.1.13.05.05.13.07.25.1l.2.06c.06.02.12.05.16.1.06.02.1.07.12.1.02.06.04.12.04.2 0 .08-.02.15-.05.22-.03.06-.07.1-.13.15-.06.04-.12.07-.2.08-.07.03-.14.04-.22.04-.1 0-.23-.02-.34-.07-.1-.04-.2-.1-.26-.2l.2-.2c.05.07.1.12.18.16.07.04.15.06.24.06.04 0 .07 0 .1-.02.04 0 .08-.02.1-.03.03-.02.06-.04.07-.07.02-.03.03-.06.03-.1 0-.08-.03-.13-.1-.16-.07-.04-.17-.07-.3-.1-.05 0-.1-.03-.15-.05-.05 0-.1-.04-.14-.07-.04-.03-.07-.07-.1-.12-.03-.05-.04-.1-.04-.18 0-.08.02-.15.05-.2.03-.07.08-.12.13-.15.05-.04.1-.07.18-.1h.2c.12 0 .23 0 .33.05.1.04.2.1.24.2l-.2.16zm1.42 0c-.04-.05-.08-.1-.15-.13-.05-.04-.12-.06-.2-.06h-.1l-.1.05c0 .02-.04.04-.05.06-.02.03-.03.06-.03.1 0 .06.03.1.1.13.05.05.14.07.25.1l.2.06c.06.02.12.05.16.1.05.02.1.07.1.1.04.06.05.12.05.2 0 .08-.02.15-.05.22-.04.06-.08.1-.14.15-.06.04-.13.07-.2.08-.07.03-.15.04-.23.04-.1 0-.22-.02-.33-.07-.1-.04-.2-.1-.28-.2l.22-.2c.04.07.1.12.17.16.07.04.15.06.23.06.04 0 .08 0 .1-.02.05 0 .08-.02.1-.03.04-.02.06-.04.08-.07l.02-.1c0-.08-.03-.13-.1-.16-.07-.04-.16-.07-.3-.1-.05 0-.1-.03-.15-.05-.05 0-.1-.04-.14-.07-.06-.03-.1-.07-.12-.12-.02-.05-.04-.1-.04-.18 0-.08.02-.15.05-.2.03-.07.07-.12.12-.15l.18-.1h.22c.1 0 .2 0 .3.05.1.04.2.1.25.2l-.2.16zm2.14.37c0 .12-.02.23-.06.33-.04.1-.1.18-.18.25-.07.08-.16.14-.26.18-.1.04-.2.06-.32.06s-.22-.02-.32-.06c-.1-.04-.2-.1-.26-.17-.08-.06-.13-.14-.18-.24-.04-.1-.06-.2-.06-.33 0-.1.02-.22.06-.32.05-.1.1-.17.18-.24.07-.07.16-.13.26-.16.1-.04.2-.06.32-.06.1 0 .22.02.32.06.1.03.2.1.26.16.08.07.14.15.18.25.04.1.06.22.06.33zm-.3 0c0-.07-.03-.14-.05-.2-.02-.07-.05-.13-.1-.18-.04-.05-.1-.1-.15-.12-.07-.03-.14-.04-.22-.04-.08 0-.15 0-.22.03-.06.03-.1.07-.16.12-.04.05-.07.1-.1.18-.02.06-.03.13-.03.2 0 .08 0 .15.04.2l.1.2c.05.04.1.08.16.1.07.04.14.06.22.06.08 0 .15-.03.22-.06.06-.03.1-.07.15-.12.05-.05.08-.1.1-.18.02-.06.04-.13.04-.2zm1-.75v.26l.1-.12.1-.08.14-.06c.06-.02.1-.02.17-.02.1 0 .2 0 .26.05.07.02.13.06.17.12.05.05.1.12.1.2.03.07.04.15.04.23v.95h-.3v-.85-.17l-.07-.15c-.02-.04-.06-.08-.1-.1-.05-.03-.1-.04-.18-.04-.1 0-.2.03-.3.13-.06.1-.1.2-.1.36v.8h-.3v-1.2-.15c0-.07 0-.12-.02-.17h.3z" fill="#5CB85C"/><path d="M293.43 74.2c0 .06-.02.1-.06.16-.04.04-.1.06-.16.06-.05 0-.1-.02-.14-.06-.04-.04-.06-.1-.06-.15 0-.05.02-.1.06-.14.04-.04.1-.06.15-.06.08 0 .13.02.17.06.04.04.06.1.06.15zM242.38 85.7h.18v.76h.96v-.76h.18v1.76h-.18v-.83h-.96v.83h-.18V85.7zm2.67 1.1c0-.12-.04-.2-.1-.28-.07-.08-.17-.1-.3-.1-.05 0-.1 0-.15.02-.04.02-.1.05-.12.08l-.1.13-.03.14h.8zm.17.04v.08h-.97c0 .06 0 .12.03.17l.1.12c.03.04.08.07.13.1l.18.03c.08 0 .16-.02.22-.06.07-.05.12-.1.15-.15l.13.1c-.07.08-.15.15-.23.18-.1.04-.18.06-.27.06-.1 0-.17-.02-.24-.05-.08-.03-.14-.08-.2-.13-.05-.06-.1-.12-.12-.2-.03-.07-.05-.15-.05-.24 0-.1.02-.17.05-.25.03-.07.07-.13.12-.2.06-.04.12-.1.2-.12.06-.02.14-.03.22-.03.1 0 .17 0 .24.04.07.04.13.08.18.14.04.05.08.1.1.18.03.07.04.14.04.22zm.76.44l.37-.98h.2l-.6 1.46c-.03.1-.07.17-.13.22-.05.05-.13.08-.23.08h-.16v-.17h.14c.06 0 .1 0 .14-.04l.08-.16.1-.24-.5-1.16h.2l.38.98zm1.45-1.58h.6c.1 0 .2.02.32.05.1.04.2.1.3.17.1.07.16.16.2.27.07.1.1.23.1.38s-.03.28-.1.4c-.04.1-.1.2-.2.26-.1.08-.2.13-.3.17-.1.04-.22.06-.33.06h-.6V85.7zm.18 1.6h.37c.13 0 .25-.02.35-.06.1-.04.18-.1.24-.16.07-.07.12-.15.15-.23.04-.1.06-.18.06-.27 0-.1-.02-.18-.05-.27-.02-.07-.07-.15-.14-.22-.06-.06-.14-.12-.24-.16-.1-.04-.22-.06-.35-.06h-.36v1.44zm2.6-.5c0-.12-.04-.2-.1-.28-.07-.08-.17-.1-.3-.1-.04 0-.1 0-.14.02l-.13.08-.1.13-.03.14h.8zm.17.04v.08h-.97c0 .06.02.12.04.17.02.04.05.08.1.12.02.04.07.07.12.1.05.02.1.03.17.03.1 0 .16-.02.23-.06l.14-.15.13.1c-.07.08-.15.15-.23.18-.1.04-.18.06-.27.06-.1 0-.17-.02-.24-.05-.1-.03-.15-.08-.2-.13-.06-.06-.1-.12-.13-.2-.03-.07-.04-.15-.04-.24 0-.1 0-.17.04-.25.03-.07.07-.13.12-.2.05-.04.1-.1.18-.12.07-.02.15-.03.23-.03.1 0 .2 0 .26.04s.12.08.17.14c.05.05.08.1.1.18.03.07.04.14.04.22zm1.26-.05c0-.12-.04-.2-.1-.28-.08-.08-.17-.1-.3-.1-.05 0-.1 0-.15.02-.05.02-.1.05-.12.08l-.1.13-.03.14h.8zm.17.04v.08h-.97c0 .06 0 .12.03.17.02.04.05.08.1.12.03.04.08.07.13.1.04.02.1.03.15.03.1 0 .17-.02.23-.06.07-.05.1-.1.15-.15l.13.1c-.07.08-.15.15-.24.18-.08.04-.17.06-.27.06-.08 0-.16-.02-.24-.05-.06-.03-.12-.08-.18-.13-.05-.06-.1-.12-.12-.2-.03-.07-.05-.15-.05-.24 0-.1.02-.17.05-.25.03-.07.07-.13.12-.2.05-.04.12-.1.2-.12.06-.02.14-.03.22-.03.1 0 .17 0 .24.04.07.04.13.08.18.14.04.05.08.1.1.18.03.07.04.14.04.22zm.5-.54c.02.03.02.06.02.1v.1c.04-.07.1-.13.17-.17.07-.04.14-.06.23-.06.15 0 .26.04.33.13.07.1.1.2.1.35v.7H253v-.63-.17l-.06-.13-.1-.08c-.04-.02-.1-.03-.16-.03-.04 0-.08.02-.13.04-.04 0-.08.04-.1.08-.04.04-.07.08-.1.14l-.02.2v.6h-.17v-.9-.13-.13h.15zm2.05.4c0-.1-.03-.17-.08-.22-.06-.05-.14-.07-.24-.07-.07 0-.13.02-.2.05-.05.02-.1.05-.14.1l-.1-.12c.04-.05.1-.1.18-.12.08-.02.17-.03.27-.03.06 0 .12 0 .18.02.05 0 .1.04.14.07.04.04.08.08.1.13.02.06.03.12.03.2v.64l.02.12h-.15v-.1l-.02-.1c-.05.1-.1.15-.18.18-.07.04-.15.05-.24.05-.05 0-.1 0-.14-.03-.06 0-.1-.03-.14-.06-.04-.02-.07-.05-.1-.1-.02-.04-.04-.1-.04-.16 0-.1.03-.16.07-.2.04-.07.1-.1.17-.13l.27-.04h.3v-.05zm-.05.18h-.22c-.07 0-.13.03-.2.04l-.13.08c-.03.03-.05.08-.05.13 0 .04 0 .08.02.1l.06.07.1.04h.1c.05 0 .1 0 .15-.02.05-.02.1-.05.12-.08l.07-.13c.02-.03.03-.08.03-.13v-.1h-.05zm.9.1h-.16V85.7h.17v1.28zm.06.36c0 .04 0 .07-.04.1-.02.02-.05.04-.1.04-.03 0-.07-.02-.1-.04-.02-.03-.03-.06-.03-.1 0-.03 0-.06.03-.1.02-.02.06-.03.1-.03.04 0 .07.02.1.05.02.03.03.06.03.1zm1.53-.12l.43-1.52h.22l.44 1.52.43-1.52h.2l-.54 1.76h-.22l-.44-1.5-.45 1.5h-.22l-.52-1.76h.2l.43 1.52zm2.15-.73c.04-.08.1-.13.16-.17.08-.04.16-.06.25-.06.14 0 .25.04.33.13.07.1.1.2.1.35v.7h-.16v-.63c0-.06 0-.12-.02-.17 0-.05-.02-.1-.05-.13-.02-.03-.05-.06-.1-.08-.03-.02-.1-.03-.15-.03-.04 0-.1.02-.13.04-.04 0-.08.04-.1.08-.04.04-.07.08-.1.14l-.02.2v.6h-.17v-1.88h.17v.9zm2 .2c0-.1 0-.17-.07-.22-.05-.05-.13-.07-.23-.07-.07 0-.13.02-.2.05-.05.02-.1.05-.15.1l-.1-.12c.06-.05.12-.1.2-.12.08-.02.17-.03.27-.03.06 0 .12 0 .18.02.05 0 .1.04.14.07l.1.13.02.2v.64l.02.12H261l-.02-.1v-.1c-.07.1-.13.15-.2.18-.06.04-.14.05-.24.05-.04 0-.1 0-.13-.03-.04 0-.08-.03-.12-.06-.04-.02-.08-.05-.1-.1-.03-.04-.04-.1-.04-.16 0-.1.02-.16.07-.2.05-.07.12-.1.2-.13l.26-.04h.3v-.05zm-.04.18h-.2c-.07 0-.13.03-.2.04l-.13.08c-.04.03-.06.08-.06.13 0 .04.02.08.04.1 0 .03.04.06.06.07l.1.04h.1c.05 0 .1 0 .15-.02.05-.02.08-.05.12-.08l.07-.13.02-.13v-.1h-.05zm1.16-.44h-.33v.78c.02.03.03.06.05.07l.06.02H262c.02 0 .05 0 .07-.02v.14l-.08.03h-.2c-.04 0-.08-.03-.1-.05-.04-.03-.06-.06-.08-.1-.03-.04-.04-.1-.04-.15v-.73h-.24v-.14h.24v-.33h.17v.33h.33v.14zm1.85.83c-.04.07-.1.13-.2.16-.07.04-.15.06-.23.06-.1 0-.18-.02-.25-.06-.08-.03-.14-.07-.2-.12-.04-.06-.08-.12-.1-.2-.04-.07-.06-.15-.06-.24 0-.1.02-.17.05-.24.04-.08.08-.14.13-.2.05-.05.1-.1.2-.13.06-.02.14-.03.24-.03.08 0 .16.02.24.05.1.04.16.1.2.18v-.92h.18v1.88h-.17v-.2zm-.86-.4c0 .07 0 .14.03.2.02.05.05.1.1.14.03.05.07.1.13.1.05.04.1.05.18.05.07 0 .13 0 .18-.04.06 0 .1-.05.14-.1.04-.03.08-.08.1-.14.02-.05.03-.1.03-.18 0-.07 0-.13-.03-.2l-.1-.14c-.04-.04-.08-.07-.14-.1-.05-.02-.1-.03-.18-.03-.07 0-.13.02-.18.05-.06.02-.1.05-.14.1-.04.04-.07.1-.1.15l-.02.18zm2.65 0c0 .1-.02.18-.05.25-.03.08-.08.14-.13.2-.06.05-.12.1-.2.13-.07.03-.16.04-.25.04-.1 0-.17-.02-.25-.05-.07-.03-.14-.08-.2-.13-.05-.06-.1-.12-.12-.2-.03-.07-.05-.15-.05-.24 0-.1.02-.17.05-.25.03-.07.07-.13.12-.2.06-.04.13-.1.2-.12.08-.02.16-.03.25-.03.1 0 .18 0 .25.04.08.04.14.1.2.14.05.06.1.12.13.2.03.07.04.15.04.24zm-.2 0c0-.06 0-.12-.02-.17-.02-.06-.05-.1-.1-.15-.02-.05-.07-.08-.12-.1-.06-.03-.12-.04-.2-.04-.06 0-.12.02-.17.05-.07.02-.1.05-.15.1-.04.04-.07.1-.1.15l-.02.18c0 .06 0 .13.03.18.02.06.05.1.1.15.03.05.07.1.13.1.04.04.1.05.17.05s.13 0 .2-.04c.04 0 .1-.05.12-.1.03-.03.06-.08.08-.14.02-.05.03-.12.03-.18zm1.58.4l.37-.97h.18l-.58 1.46c-.03.1-.08.17-.13.22-.05.05-.13.08-.23.08h-.17l.02-.17h.13c.05 0 .1 0 .13-.04.05-.04.08-.1.1-.16l.1-.24-.5-1.16h.2l.38.98zm1.98-.4c0 .1-.02.18-.05.25-.02.08-.06.14-.12.2-.05.05-.12.1-.2.13-.07.03-.16.04-.25.04-.1 0-.17-.02-.25-.05-.07-.03-.14-.08-.2-.13-.05-.06-.1-.12-.12-.2-.03-.07-.05-.15-.05-.24 0-.1.03-.17.06-.25.03-.07.07-.13.13-.2.04-.04.1-.1.18-.12.08-.02.16-.03.25-.03.1 0 .18 0 .26.04l.18.14c.06.06.1.12.13.2.04.07.06.15.06.24zm-.18 0c0-.06 0-.12-.03-.17-.02-.06-.05-.1-.1-.15-.03-.05-.08-.08-.13-.1-.06-.03-.12-.04-.2-.04-.05 0-.12.02-.17.05-.05.02-.1.05-.14.1l-.08.15c-.02.05-.03.1-.03.18 0 .06 0 .13.02.18.02.06.05.1.1.15.03.05.08.1.13.1.05.04.12.05.18.05.07 0 .13 0 .2-.04.04 0 .1-.05.13-.1.04-.03.07-.08.1-.14l.02-.18zm1.4.6c-.02-.04-.02-.07-.02-.1v-.1c-.04.06-.1.12-.17.16-.08.04-.16.06-.25.06-.14 0-.25-.05-.33-.14-.07-.1-.1-.2-.1-.35v-.7h.16v.64c0 .06 0 .12.02.17 0 .06.02.1.05.14.02.03.05.06.1.08.03.02.1.03.15.03.04 0 .1 0 .13-.03.04-.02.08-.04.1-.08l.1-.14.02-.2v-.6h.17V87.46h-.15zM242.52 89.3v.2c.05-.07.1-.13.18-.17.07-.04.15-.06.23-.06.15 0 .26.04.34.13.07.1.1.2.1.35v.7h-.16v-.63-.17c-.02-.05-.03-.1-.06-.13-.02-.03-.05-.06-.1-.08-.04-.02-.1-.03-.15-.03-.05 0-.1.02-.14.04-.04 0-.08.04-.1.08-.05.04-.07.08-.1.14l-.02.2v.6h-.17v-.9-.13-.13h.15zm2.2.5c-.02-.12-.05-.2-.12-.28-.07-.08-.16-.1-.28-.1-.06 0-.1 0-.16.02-.05.02-.1.05-.12.08l-.1.13-.03.14h.8zm.16.04v.08h-.97c0 .06.02.12.04.17.02.04.05.08.1.12.03.04.08.07.13.1.05.02.1.03.16.03.1 0 .17-.02.23-.06.07-.05.12-.1.15-.15l.14.1c-.07.08-.15.15-.24.18-.08.04-.17.06-.27.06-.08 0-.16-.02-.24-.05-.08-.03-.14-.08-.2-.13-.05-.06-.1-.12-.12-.2-.03-.07-.05-.15-.05-.24 0-.1.02-.17.05-.25.03-.07.07-.13.12-.2.05-.04.12-.1.2-.12.06-.02.14-.03.22-.03.1 0 .17 0 .24.04.07.04.13.08.18.14.04.05.08.1.1.18.03.07.04.14.04.22zm1.25-.05c0-.12-.04-.2-.1-.28-.07-.08-.16-.1-.28-.1-.06 0-.1 0-.16.02s-.1.05-.14.08l-.1.13-.02.14h.8zm.17.04v.08h-.97c0 .06.02.12.04.17.02.04.05.08.1.12.03.04.07.07.12.1.04.02.1.03.16.03.1 0 .16-.02.23-.06.05-.05.1-.1.13-.15l.13.1c-.07.08-.15.15-.23.18-.08.04-.17.06-.27.06s-.17-.02-.24-.05c-.07-.03-.14-.08-.2-.13-.04-.06-.1-.12-.12-.2-.03-.07-.04-.15-.04-.24 0-.1 0-.17.04-.25.03-.07.07-.13.13-.2.05-.04.1-.1.18-.12.08-.02.16-.03.25-.03.1 0 .17 0 .24.04.06.04.12.08.16.14.05.05.08.1.1.18.03.07.04.14.04.22zm1.33.43c-.05.07-.12.13-.2.16-.08.04-.16.06-.24.06-.1 0-.2-.02-.26-.06-.08-.03-.14-.07-.2-.12-.04-.06-.08-.12-.1-.2-.04-.07-.06-.15-.06-.24 0-.1.02-.17.05-.24.03-.08.07-.14.12-.2.05-.05.1-.1.2-.13.06-.02.14-.03.24-.03.07 0 .15.02.23.05.08.04.15.1.2.18v-.92h.17v1.88h-.17v-.2zm-.87-.4c0 .07 0 .14.03.2 0 .05.04.1.08.14.04.05.08.1.14.1.05.04.1.05.18.05.07 0 .13 0 .18-.04.06 0 .1-.05.15-.1.03-.03.07-.08.1-.14l.02-.18c0-.07 0-.13-.03-.2l-.1-.14c-.03-.04-.08-.07-.14-.1-.05-.02-.1-.03-.18-.03-.07 0-.13.02-.18.05-.06.02-.1.05-.14.1-.04.04-.07.1-.1.15l-.02.18zm2.3-.38c.03-.08.08-.13.16-.17.07-.04.15-.06.23-.06.15 0 .26.04.33.13.08.1.1.2.1.35v.7h-.16v-.63-.17l-.06-.13-.1-.08c-.04-.02-.1-.03-.15-.03-.04 0-.08.02-.12.04-.05 0-.08.04-.12.08-.03.04-.06.08-.08.14-.02.06-.03.13-.03.2v.6h-.17v-1.88h.17v.9zm2.16.3c0-.12-.04-.2-.1-.28-.07-.08-.16-.1-.28-.1-.06 0-.1 0-.16.02l-.13.08-.1.13-.02.14h.8zm.17.04v.08h-.98c0 .06.02.12.04.17.02.04.05.08.1.12.03.04.07.07.12.1.05.02.1.03.17.03.1 0 .16-.02.23-.06l.14-.15.13.1c-.07.08-.15.15-.23.18-.08.04-.17.06-.27.06s-.17-.02-.24-.05c-.06-.03-.13-.08-.18-.13-.05-.06-.1-.12-.13-.2-.04-.07-.05-.15-.05-.24 0-.1 0-.17.04-.25.02-.07.06-.13.12-.2.05-.04.1-.1.18-.12.07-.02.15-.03.24-.03.1 0 .17 0 .24.04.07.04.13.08.17.14.05.05.08.1.1.18.03.07.04.14.04.22zm.53.62h-.17v-1.88h.17v1.88zm.63.6h-.17V89.3h.16v.2c.05-.08.12-.14.2-.18.08-.03.16-.05.24-.05.1 0 .18 0 .25.04l.2.14c.04.06.08.12.1.2.04.07.05.15.05.24 0 .1 0 .17-.04.24-.03.08-.07.14-.12.2-.05.05-.12.1-.2.12-.06.04-.15.05-.24.05-.08 0-.16-.03-.24-.07-.08-.04-.15-.1-.2-.16v.8zm.87-1.18c0-.07 0-.13-.03-.18-.02-.06-.05-.1-.1-.15-.03-.05-.07-.08-.13-.1-.05-.03-.12-.04-.2-.04-.05 0-.1.02-.17.04l-.14.1-.1.15-.02.18c0 .07 0 .13.03.18.02.06.05.1.1.15.03.05.08.1.13.1.06.04.12.05.18.05.07 0 .14 0 .2-.04.05 0 .1-.05.13-.1.05-.03.08-.08.1-.14.02-.05.03-.12.03-.18zm1.18-.58l.3.94.3-.94h.18l.32.94.28-.94h.18l-.37 1.16h-.2l-.3-.94-.3.94h-.2l-.37-1.16h.18zm2.02 1.16h-.17V89.3h.17v1.16zm.04-1.6c0 .02 0 .05-.04.07-.02.03-.05.04-.08.04s-.06 0-.08-.04c-.03-.02-.04-.05-.04-.08 0-.04 0-.07.04-.1l.08-.02c.03 0 .06 0 .08.03.03.02.04.05.04.1zm.94.58h-.33v.78c.02.03.03.06.05.07l.06.02h.14c.03 0 .05 0 .07-.02v.14l-.1.03h-.2c-.03 0-.07-.03-.1-.05l-.07-.1c-.02-.04-.03-.1-.03-.15v-.73h-.24v-.14h.24v-.33h.17v.33h.33v.14zm.44.05c.04-.08.1-.13.16-.17.07-.04.15-.06.24-.06.14 0 .25.04.33.13.07.1.1.2.1.35v.7h-.16v-.63-.17c-.02-.05-.03-.1-.06-.13-.02-.03-.05-.06-.1-.08-.03-.02-.1-.03-.15-.03-.05 0-.1.02-.14.04-.04 0-.08.04-.1.08-.04.04-.07.08-.1.14l-.02.2v.6h-.17v-1.88h.17v.9zm2.43-.06h-.33v.78c.02.03.03.06.05.07l.04.02h.17s.04 0 .06-.02v.14l-.1.03h-.2c-.03 0-.06-.03-.1-.05l-.06-.1c-.02-.04-.03-.1-.03-.15v-.73h-.24v-.14h.24v-.33h.17v.33h.33v.14zm1.42.44c0 .1-.03.17-.06.24-.03.08-.07.14-.12.2-.06.05-.12.1-.2.13-.08.03-.16.04-.25.04-.1 0-.18-.02-.25-.05-.08-.03-.14-.08-.2-.13-.05-.06-.1-.12-.13-.2-.04-.07-.05-.15-.05-.24 0-.1 0-.17.04-.25.02-.07.07-.13.12-.2.06-.04.12-.1.2-.12.07-.02.16-.03.25-.03.1 0 .17 0 .25.04.08.04.14.1.2.14.05.06.1.12.12.2.03.07.05.15.05.24zm-.2 0c0-.07 0-.13-.02-.18-.02-.06-.05-.1-.1-.15-.03-.05-.07-.08-.13-.1-.05-.03-.1-.04-.18-.04-.07 0-.13.02-.2.05-.04.02-.1.05-.12.1-.04.04-.07.1-.1.15l-.02.18c0 .06 0 .13.03.18.02.06.05.1.1.15.02.05.07.1.12.1.06.04.12.05.2.05.06 0 .12 0 .17-.04.06 0 .1-.05.14-.1.03-.03.06-.08.08-.14.02-.05.03-.12.03-.18zm1.5.4c-.04.06-.1.12-.18.15-.08.04-.16.06-.25.06-.1 0-.17-.02-.25-.06-.07-.03-.13-.07-.18-.12-.06-.06-.1-.12-.13-.2-.02-.07-.03-.15-.03-.24 0-.1 0-.17.04-.24.04-.08.08-.14.14-.2.05-.05.1-.1.18-.13.08-.02.16-.03.25-.03.1 0 .17.02.25.05.08.04.14.1.2.18v-.92h.17v1.88h-.18v-.2zm-.85-.4c0 .06 0 .13.03.18.02.06.05.1.08.15.04.05.1.1.14.1.06.04.12.05.2.05.05 0 .1 0 .17-.04.05 0 .1-.05.14-.1.05-.03.08-.08.1-.14.03-.05.04-.1.04-.18 0-.07 0-.13-.03-.2-.02-.04-.05-.1-.1-.14-.03-.04-.08-.07-.13-.1l-.18-.03c-.08 0-.14.02-.2.05-.05.02-.1.05-.14.1l-.08.15c-.02.05-.03.1-.03.18zm2.23-.17c0-.1-.03-.17-.08-.22-.06-.05-.13-.07-.23-.07-.07 0-.14.02-.2.05-.06.02-.1.05-.15.1l-.1-.12c.05-.05.12-.1.2-.12.07-.02.16-.03.26-.03.07 0 .13 0 .18.02.06 0 .1.04.14.07.05.04.08.08.1.13.03.06.04.12.04.2v.64c0 .05 0 .1.02.12h-.16v-.1-.1h-.02c-.05.1-.1.15-.18.18-.07.04-.15.05-.24.05-.05 0-.1 0-.14-.03-.05 0-.1-.03-.13-.06-.05-.02-.08-.05-.1-.1-.03-.04-.05-.1-.05-.16 0-.1.03-.16.07-.2.05-.07.1-.1.2-.13.06-.02.15-.03.25-.04h.3v-.05zm-.05.18h-.2c-.08 0-.15.03-.2.04-.06.02-.1.05-.15.08-.03.03-.05.08-.05.13 0 .04 0 .08.02.1.02.03.04.06.07.07l.08.04h.1c.06 0 .12 0 .16-.02.05-.02.1-.05.12-.08.03-.04.06-.08.07-.13.02-.03.03-.08.03-.13v-.1h-.05zm1.04.4l.37-.98h.2l-.6 1.46c-.03.1-.07.17-.13.22-.04.05-.12.08-.22.08h-.15v-.17h.14c.06 0 .1 0 .14-.04.04-.04.07-.1.1-.16l.1-.24-.5-1.16h.18l.4.98zm1.28-.3h-.18v-.15c0-.04 0-.08.02-.12l.03-.1.07-.07.07-.07.07-.07c.04-.04.08-.08.1-.12.03-.04.05-.1.05-.16 0-.05-.02-.1-.04-.13 0-.04-.04-.08-.06-.1-.03-.03-.07-.04-.1-.06l-.12-.02c-.1 0-.17.03-.22.08-.06.06-.1.13-.1.2l-.18-.02c.03-.13.1-.23.18-.3.08-.08.2-.1.32-.1.07 0 .13 0 .2.02.05.02.1.04.14.08.05.04.08.08.1.14.03.05.05.12.05.2 0 .04 0 .1-.02.13 0 .04-.03.07-.05.1l-.07.1c-.03 0-.06.04-.1.07l-.08.07-.06.07c-.02.02-.04.05-.04.08v.22zm.06.36c0 .04 0 .07-.02.1-.03.02-.06.04-.1.04-.04 0-.07-.02-.1-.04-.02-.03-.04-.06-.04-.1 0-.03.02-.06.04-.1.03-.02.06-.03.1-.03.04 0 .07.02.1.05.02.03.03.06.03.1zM240.27 170.8h-.18v-1.62h-.6v-.16h1.36v.16h-.6v1.6zm1-.2l.38-.98h.18l-.58 1.47c-.03.08-.08.15-.13.2-.06.06-.14.1-.24.1l-.15-.03.02-.15.12.02c.06 0 .1-.02.14-.06.04-.03.07-.08.1-.15l.1-.24-.5-1.18h.18l.4 1zm1 .8h-.17v-1.78h.16v.2c.06-.07.12-.13.2-.17.1-.04.17-.06.25-.06.1 0 .18 0 .26.04.07.03.14.07.2.13.04.05.08.12.1.2.04.07.05.15.05.23 0 .1 0 .17-.03.25-.03.07-.07.14-.12.2-.05.05-.12.1-.2.12-.07.03-.15.05-.24.05-.07 0-.15-.02-.23-.06-.1-.04-.15-.1-.2-.17v.8zm.86-1.2c0-.06 0-.12-.03-.18-.02-.06-.04-.1-.08-.15-.04-.04-.08-.07-.14-.1-.05-.02-.12-.04-.2-.04-.05 0-.1.02-.17.04-.04.02-.1.06-.13.1-.04.04-.07.1-.1.15l-.03.18c0 .07.02.13.04.2.02.05.05.1.1.14.03.04.08.07.13.1.07.02.13.03.2.03.06 0 .13 0 .18-.03.06-.03.1-.06.14-.1.04-.04.06-.1.08-.15.02-.07.03-.13.03-.2zm1.44-.08c0-.1-.04-.2-.1-.28-.07-.07-.17-.1-.3-.1-.05 0-.1 0-.15.03-.04.02-.1.04-.12.08l-.1.12-.03.15h.8zm.17.05v.09h-.97c0 .06 0 .1.04.16.03.07.06.1.1.15.03.04.08.07.13.1l.17.02c.08 0 .16-.02.22-.06.07-.03.12-.08.15-.13l.13.1c-.07.1-.15.15-.23.2-.1.03-.18.05-.27.05-.1 0-.17-.02-.24-.05-.08-.03-.14-.07-.2-.13-.05-.05-.1-.12-.12-.2-.03-.07-.05-.15-.05-.24 0-.08 0-.16.04-.24.03-.07.07-.14.12-.2.06-.05.12-.1.2-.12.06-.03.14-.05.22-.05.1 0 .17 0 .24.04.07.03.13.07.18.12.04.05.08.12.1.2.03.06.04.13.04.2zm1.72-.13c0-.1-.02-.18-.08-.23-.05-.04-.13-.07-.23-.07-.07 0-.13.02-.2.04l-.15.1-.1-.1c.06-.06.12-.1.2-.13.08-.03.17-.05.27-.05.06 0 .12 0 .18.02.05.02.1.04.14.08l.1.13.02.2v.64c0 .04 0 .1.02.12h-.15c-.02-.04-.02-.07-.02-.1v-.1c-.07.08-.13.13-.2.17-.06.03-.14.05-.24.05-.04 0-.1 0-.13-.02-.04 0-.1-.03-.12-.06l-.1-.1c-.03-.06-.04-.1-.04-.18 0-.1.02-.16.07-.2.05-.06.1-.1.2-.13l.25-.05h.3v-.04zm-.05.16h-.2l-.2.05c-.05.02-.1.04-.13.07-.04.04-.06.08-.06.14 0 .04.02.07.04.1 0 .03.03.05.06.07l.1.04h.1c.05 0 .1 0 .15-.02.04-.02.08-.05.1-.1.05-.02.07-.06.1-.1v-.26h-.04zm1.45-.38c.03-.07.08-.12.15-.16.07-.05.15-.07.23-.07h.1c.03 0 .07.02.1.04l.1.08.06.12c.03-.08.1-.14.15-.18.07-.05.15-.07.25-.07.15 0 .26.04.33.12.08.1.1.2.1.35v.72h-.16v-.66c0-.12-.02-.22-.06-.3-.04-.07-.12-.1-.23-.1-.06 0-.1 0-.15.03-.05.03-.08.06-.1.1-.03.04-.05.1-.06.14l-.02.17v.62h-.17v-.7-.15l-.05-.12c-.03-.03-.05-.05-.1-.07-.03-.02-.07-.03-.13-.03-.05 0-.1 0-.13.03-.04.02-.08.05-.1.08-.04.04-.07.1-.1.15l-.02.2v.6h-.17v-.92-.12-.14h.15v.2h.02zm2.92.3c0-.1-.04-.2-.1-.28-.07-.07-.16-.1-.28-.1-.07 0-.12 0-.17.03-.05.02-.1.04-.13.08l-.1.12-.02.15h.8zm.17.05v.09h-.97c0 .06.02.1.04.16.03.07.06.1.1.15l.13.1.17.02c.1 0 .16-.02.23-.06.06-.03.1-.08.14-.13l.13.1c-.07.1-.15.15-.23.2-.08.03-.17.05-.27.05s-.17-.02-.24-.05c-.07-.03-.14-.07-.2-.13-.04-.05-.1-.12-.12-.2-.03-.07-.04-.15-.04-.24 0-.08 0-.16.04-.24.03-.07.07-.14.13-.2.05-.05.1-.1.18-.12.08-.03.15-.05.24-.05.08 0 .16 0 .23.04.07.03.13.07.17.12.05.05.08.12.1.2.03.06.04.13.04.2zm1-.27c-.04-.05-.07-.1-.12-.12-.06-.03-.1-.05-.18-.05h-.1l-.07.05c-.02 0-.04.03-.05.05-.02.03-.02.05-.02.1 0 .04.02.08.06.1.05.04.12.07.2.1.15 0 .25.05.32.1.07.06.1.14.1.23 0 .06 0 .12-.04.16-.03.05-.06.1-.1.12-.04.03-.1.05-.14.06l-.16.02c-.1 0-.17-.02-.26-.06-.08-.03-.15-.1-.2-.17l.13-.1c.04.04.1.1.14.12.06.04.13.05.2.05h.1c.03 0 .06-.02.1-.04 0-.02.03-.04.05-.06v-.1c0-.06-.02-.1-.08-.14l-.25-.1c-.04 0-.07 0-.1-.02-.05 0-.1-.02-.12-.04-.04-.03-.06-.06-.08-.1-.03-.03-.04-.07-.04-.13s0-.1.04-.15c.02-.04.05-.08.1-.1.03-.03.07-.05.12-.07h.15c.08 0 .16 0 .24.05.06.03.12.08.16.15l-.13.1zm1.1 0c-.03-.05-.07-.1-.12-.12-.05-.03-.1-.05-.17-.05h-.1l-.07.05c-.02 0-.04.03-.06.05l-.02.1c0 .04.02.08.07.1.04.04.1.07.2.1.15 0 .25.05.32.1.05.06.08.14.08.23 0 .06 0 .12-.03.16-.03.05-.06.1-.1.12l-.15.06-.15.02c-.1 0-.18-.02-.26-.06-.1-.03-.16-.1-.2-.17l.12-.1c.03.04.07.1.13.12.06.04.12.05.2.05h.1c.03 0 .06-.02.1-.04 0-.02.03-.04.05-.06l.02-.1c0-.06-.03-.1-.1-.14l-.25-.1c-.03 0-.07 0-.1-.02-.05 0-.08-.02-.12-.04l-.08-.1c-.02-.03-.03-.07-.03-.13s0-.1.03-.15c.03-.04.06-.08.1-.1l.13-.07h.16c.08 0 .16 0 .23.05.07.03.13.08.16.15l-.12.1zm1.22.14c0-.1-.03-.18-.08-.23-.06-.04-.13-.07-.23-.07-.07 0-.14.02-.2.04l-.15.1-.1-.1c.05-.06.12-.1.2-.13.07-.03.16-.05.26-.05.07 0 .12 0 .18.02.05.02.1.04.14.08.05.03.08.08.1.13.02.05.04.1.04.2v.64c0 .04 0 .1.02.12h-.16v-.1-.1h-.02c-.05.08-.1.13-.18.17-.07.03-.15.05-.24.05-.05 0-.1 0-.14-.02-.05 0-.1-.03-.13-.06l-.1-.1c-.02-.06-.04-.1-.04-.18 0-.1.03-.16.07-.2.05-.06.1-.1.2-.13l.25-.05h.3v-.04zm-.05.16h-.2l-.2.05-.14.07c-.03.04-.05.08-.05.14 0 .04.02.07.03.1l.07.07.08.04h.1c.06 0 .12 0 .16-.02.05-.02.1-.05.12-.1.03-.02.06-.06.07-.1.02-.06.03-.1.03-.16v-.1h-.05zm.7.82c.06.06.12.1.2.15.1.05.17.07.26.07.08 0 .15-.02.2-.04.07-.02.12-.06.15-.1.05-.04.08-.1.1-.14l.02-.18v-.22c-.05.07-.12.13-.2.17-.08.04-.16.06-.25.06-.1 0-.17-.03-.25-.06-.07-.03-.13-.07-.2-.12-.04-.05-.08-.12-.1-.2-.04-.06-.05-.14-.05-.23 0-.1 0-.17.04-.24l.13-.2c.06-.05.12-.1.2-.12.07-.03.15-.05.24-.05.1 0 .17 0 .25.05.08.04.15.1.2.17v-.2h.17v1.16c0 .06-.02.13-.04.2s-.05.14-.1.2c-.04.06-.1.1-.2.15-.07.04-.18.06-.3.06-.1 0-.22-.03-.32-.08-.1-.04-.18-.1-.25-.17l.1-.13zm.05-.83c0 .05 0 .1.03.16.02.06.05.1.08.15.04.05.1.08.14.1.06.03.12.04.2.04.05 0 .1 0 .17-.03.05 0 .1-.04.14-.08.05-.04.08-.1.1-.14.03-.06.04-.12.04-.2 0-.05 0-.1-.04-.16-.02-.06-.05-.1-.1-.15-.03-.04-.08-.07-.13-.1-.06-.02-.12-.04-.18-.04-.08 0-.14.02-.2.04l-.14.1-.08.15c-.02.05-.03.1-.03.17zm2.37-.08c0-.1-.04-.2-.1-.28-.07-.07-.17-.1-.3-.1-.05 0-.1 0-.15.03-.04.02-.1.04-.12.08l-.1.12-.03.15h.8zm.17.05v.09h-.98c0 .06 0 .1.03.16.03.07.06.1.1.15.03.04.08.07.13.1l.17.02c.08 0 .16-.02.22-.06.07-.03.12-.08.15-.13l.13.1c-.07.1-.15.15-.23.2-.1.03-.18.05-.27.05-.1 0-.17-.02-.24-.05-.07-.03-.13-.07-.18-.13-.06-.05-.1-.12-.13-.2-.04-.07-.06-.15-.06-.24 0-.08.02-.16.05-.24.02-.07.06-.14.1-.2.07-.05.13-.1.2-.12.07-.03.15-.05.23-.05.1 0 .17 0 .24.04.07.03.13.07.18.12.04.05.08.12.1.2.03.06.04.13.04.2zm.68.5c0 .03 0 .06-.04.1-.02.02-.05.03-.1.03-.03 0-.07 0-.1-.04-.02-.03-.03-.06-.03-.1 0-.03.02-.06.05-.08.02-.03.06-.05.1-.05.04 0 .07.02.1.05.02.02.03.05.03.1zm.83 0c0 .03 0 .06-.03.1-.02.02-.05.03-.1.03-.03 0-.07 0-.1-.04-.02-.03-.03-.06-.03-.1 0-.03 0-.06.04-.08.02-.03.06-.05.1-.05.04 0 .07.02.1.05.02.02.03.05.03.1zm.84 0c0 .03 0 .06-.04.1-.02.02-.05.03-.1.03-.03 0-.07 0-.1-.04-.02-.03-.03-.06-.03-.1 0-.03 0-.06.04-.08.03-.03.07-.05.1-.05.05 0 .08.02.1.05.03.02.04.05.04.1z" fill="#4A4A4A"/><path d="M264.28 101h-.18v-1.77h.18V101zm1.26-.98c.03-.07.08-.12.16-.16.07-.04.15-.06.23-.06.15 0 .26.04.33.13.08.1.12.2.12.35v.7h-.17v-.63-.17l-.06-.13c-.02-.03-.06-.06-.1-.08-.04-.02-.1-.03-.15-.03-.06 0-.1 0-.14.03-.04.02-.08.04-.12.08l-.07.14c-.02.05-.03.12-.03.2v.6h-.17v-1.9h.17v.92zm2 .22c0-.1-.02-.18-.07-.23-.05-.04-.13-.06-.23-.06-.07 0-.14 0-.2.04-.06.02-.1.06-.15.1l-.1-.12c.04-.04.1-.08.2-.12.07-.03.16-.04.26-.04.06 0 .12 0 .17.02.06.02.1.05.15.08l.1.13c.02.06.03.12.03.2v.64l.03.12h-.15c0-.03 0-.07-.02-.1v-.1c-.06.08-.12.14-.2.17-.05.04-.13.05-.23.05H267l-.14-.08c-.04-.02-.07-.06-.1-.1-.02-.05-.03-.1-.03-.17 0-.1.02-.16.07-.2.04-.07.1-.1.18-.13.07-.03.16-.04.26-.05.1-.02.2-.02.3-.02v-.04zm-.04.17c-.07 0-.14 0-.2.02-.08 0-.15.02-.2.03-.06.02-.1.05-.14.08-.04.03-.06.08-.06.13 0 .04 0 .08.02.1.02.04.04.06.07.08.02 0 .04.03.08.03h.1c.06 0 .1 0 .15-.02.05-.02.1-.05.12-.08.03-.04.06-.08.07-.13.02-.04.03-.1.03-.14v-.1h-.05zm1.12.6h-.18l-.48-1.17h.2l.37.98.4-.97h.17l-.48 1.16zm1.63-.68c0-.1-.04-.2-.1-.27-.07-.07-.16-.1-.3-.1-.04 0-.1 0-.14.02-.04.02-.08.05-.12.1-.04.02-.06.06-.1.1l-.02.15h.8zm.17.06v.09h-.97c0 .05.02.1.04.16 0 .05.04.1.08.13l.13.1.18.03c.1 0 .16-.02.23-.06.07-.04.12-.1.15-.14l.13.1c-.07.1-.15.15-.23.2-.08.02-.17.04-.27.04s-.17 0-.24-.04c-.07-.03-.14-.08-.2-.13-.04-.06-.1-.12-.12-.2-.03-.07-.04-.15-.04-.24 0-.08 0-.16.04-.23.03-.08.07-.14.13-.2.05-.05.1-.1.18-.13.07-.03.15-.04.23-.04.1 0 .18 0 .25.04.08.03.13.08.18.13.05.05.08.1.1.18.03.07.04.15.04.23zm1.73-.14c0-.1-.03-.18-.08-.23-.06-.04-.13-.06-.24-.06-.07 0-.13 0-.2.04-.05.02-.1.06-.14.1l-.1-.12c.04-.04.1-.08.18-.12.08-.03.17-.04.27-.04.06 0 .12 0 .18.02l.14.08c.04.04.08.08.1.13.02.06.04.12.04.2v.64c0 .05.02.1.03.12h-.16v-.1-.1h-.02c-.05.08-.1.14-.18.17-.07.04-.15.05-.24.05h-.14l-.14-.08c-.04-.02-.07-.06-.1-.1-.02-.05-.04-.1-.04-.17 0-.1.03-.16.07-.2.04-.07.1-.1.17-.13.08-.03.17-.04.27-.05.1-.02.2-.02.3-.02v-.04zm-.05.17c-.07 0-.14 0-.2.02-.1 0-.15.02-.2.03-.06.02-.1.05-.15.08-.03.03-.05.08-.05.13 0 .04 0 .08.02.1l.06.08c.03 0 .06.03.1.03h.1c.05 0 .1 0 .15-.02.05-.02.1-.05.12-.08l.07-.13c.02-.04.03-.1.03-.14v-.1h-.05zm1.8-.43h-.34v.78c.02.04.03.06.05.07l.07.04h.14c.04 0 .06-.02.08-.03v.14c-.02.02-.05.02-.08.03h-.2c-.04 0-.08-.03-.1-.05-.04-.02-.06-.06-.08-.1-.02-.04-.03-.1-.03-.15v-.73h-.25v-.14h.24v-.33h.16v.33h.33v.14zm.25.1v-.1-.14h.16v.1c.02.04.02.07.02.1.04-.07.08-.13.15-.17.07-.04.14-.06.23-.06h.11v.17h-.06l-.07-.02c-.05 0-.1 0-.13.03-.05.02-.08.04-.1.08-.04.03-.07.08-.1.14l-.02.2v.6h-.17v-.92zm1.07.92h-.17v-1.17h.17V101zm.04-1.62c0 .03 0 .06-.04.08-.02.03-.05.04-.08.04s-.06 0-.08-.04c-.03-.02-.04-.05-.04-.08 0-.04 0-.06.04-.1l.08-.02c.03 0 .06 0 .08.03.03.02.04.04.04.08zm.48 1.85c.04.06.1.1.2.15.07.04.15.06.24.06.1 0 .16 0 .22-.03.05-.02.1-.05.14-.1.03-.03.06-.08.08-.14l.02-.18v-.22c-.05.08-.1.13-.2.17-.08.04-.16.06-.25.06-.1 0-.18-.02-.25-.05-.08-.03-.14-.07-.2-.12-.05-.06-.1-.12-.12-.2-.02-.07-.04-.14-.04-.23 0-.08 0-.16.03-.23.03-.08.07-.14.13-.2.05-.05.1-.1.2-.13.06-.03.14-.04.23-.04.08 0 .16.02.24.06.08.04.15.1.2.17v-.2h.17v1.15c0 .07 0 .13-.02.2 0 .08-.05.14-.1.2-.04.06-.1.1-.2.15-.07.04-.17.06-.3.06-.1 0-.2-.03-.3-.07-.1-.04-.2-.1-.26-.17l.12-.13zm.03-.83c0 .06 0 .12.03.17.02.06.05.1.1.14.02.06.07.1.12.1.06.04.12.05.2.05.06 0 .12 0 .17-.03.05-.02.1-.06.13-.1.04-.04.07-.08.1-.14.02-.05.03-.12.03-.18 0-.07 0-.12-.03-.18l-.1-.14c-.04-.04-.08-.08-.14-.1-.06-.03-.12-.04-.2-.04-.06 0-.12 0-.18.04-.05.02-.1.06-.13.1-.05.04-.08.1-.1.14-.02.06-.03.1-.03.18zm2.64 0c0 .1 0 .18-.04.25-.03.08-.07.14-.12.2-.06.05-.13.1-.2.13-.08.03-.16.04-.25.04-.1 0-.2 0-.26-.04-.08-.03-.14-.08-.2-.13-.05-.06-.1-.12-.13-.2-.02-.07-.03-.15-.03-.24 0-.08 0-.16.04-.23.04-.08.1-.14.14-.2.06-.05.12-.1.2-.13.07-.03.16-.04.25-.04.08 0 .16 0 .24.04.07.03.14.08.2.13.05.06.1.12.12.2.03.07.05.15.05.24zm-.17 0c0-.05 0-.12-.03-.17-.02-.06-.05-.1-.1-.15-.03-.04-.07-.08-.13-.1-.05-.03-.12-.04-.18-.04-.08 0-.14 0-.2.04-.05.02-.1.06-.13.1-.04.04-.07.1-.1.15l-.02.18c0 .08 0 .14.03.2.02.05.05.1.1.14.02.05.07.08.12.1.06.03.12.04.2.04.05 0 .12 0 .17-.04.06-.02.1-.05.14-.1.05-.04.08-.1.1-.15.02-.06.03-.12.03-.2zm.7-.57v.2c.04-.07.1-.13.17-.17.08-.04.16-.06.24-.06.15 0 .26.04.33.13.08.1.1.2.1.35v.7h-.16v-.63-.17c0-.05-.03-.1-.05-.13l-.1-.08c-.04-.02-.1-.03-.15-.03-.05 0-.1 0-.13.03-.05.02-.08.04-.12.08l-.08.14c-.02.05-.03.12-.03.2v.6h-.17v-.92-.12-.13h.16zm2.45.58c0 .1 0 .18-.05.25-.03.08-.07.14-.12.2-.05.05-.1.1-.2.13-.07.03-.15.04-.24.04-.1 0-.17 0-.25-.04-.07-.03-.13-.08-.2-.13-.04-.06-.1-.12-.12-.2-.03-.07-.04-.15-.04-.24 0-.08 0-.16.04-.23.03-.08.08-.14.13-.2.07-.05.13-.1.2-.13.1-.03.17-.04.26-.04.1 0 .17 0 .25.04.1.03.15.08.2.13.06.06.1.12.13.2.04.07.05.15.05.24zm-.18 0c0-.05 0-.12-.03-.17-.02-.06-.05-.1-.1-.15-.03-.04-.07-.08-.13-.1-.05-.03-.1-.04-.18-.04-.07 0-.13 0-.2.04-.04.02-.1.06-.12.1-.04.04-.07.1-.1.15l-.02.18c0 .08 0 .14.03.2.02.05.05.1.1.14.02.05.07.08.12.1.06.03.12.04.2.04.06 0 .12 0 .17-.04.06-.02.1-.05.14-.1.04-.04.07-.1.1-.15l.02-.2zm.7-.37c.05-.07.1-.13.17-.17.06-.04.14-.06.23-.06h.1c.03 0 .06.03.1.05l.08.07c.03.03.05.07.07.12.04-.08.1-.14.17-.18.07-.04.15-.06.24-.06.15 0 .26.04.34.13.07.1.1.2.1.35v.7h-.16v-.63c0-.12-.03-.22-.07-.3-.05-.07-.12-.1-.23-.1-.07 0-.12 0-.16.03-.04.02-.08.05-.1.1-.03.04-.05.08-.06.13l-.02.17v.62h-.16v-.7c0-.04 0-.1-.02-.14 0-.05-.02-.1-.04-.12-.02-.03-.05-.06-.1-.07-.02-.02-.07-.03-.13-.03-.04 0-.08 0-.12.03-.04.02-.07.04-.1.08l-.1.14-.02.2v.6h-.16v-.92-.12-.13h.16v.2zm2.94.3c0-.12-.04-.2-.1-.28-.08-.07-.17-.1-.3-.1-.05 0-.1 0-.15.02-.06.02-.1.05-.13.1-.04.02-.07.06-.1.1l-.03.15h.8zm.17.05v.09h-.96c0 .05 0 .1.03.16.02.05.05.1.1.13.03.04.08.07.13.1.05.02.1.03.16.03.1 0 .17-.02.23-.06.06-.04.1-.1.14-.14l.13.1c-.07.1-.15.15-.24.2-.08.02-.17.04-.27.04-.08 0-.16 0-.24-.04-.07-.03-.13-.08-.2-.13-.04-.06-.08-.12-.1-.2-.04-.07-.06-.15-.06-.24 0-.08.02-.16.05-.23.04-.08.08-.14.13-.2.05-.05.12-.1.2-.13.06-.03.14-.04.22-.04.1 0 .17 0 .24.04.06.03.12.08.17.13.04.05.08.1.1.18.03.07.04.15.04.23zm.9-.4h-.33v.77c.02.04.03.06.05.07 0 .02.03.03.05.04H285.82l.07-.03v.14c-.03.02-.06.02-.1.03h-.2c-.04 0-.07-.03-.1-.05-.03-.02-.05-.06-.07-.1-.02-.04-.03-.1-.03-.15v-.73h-.24v-.14h.24v-.33h.17v.33h.33v.14zm.26.1v-.12-.13h.15c.02.03.02.06.02.1v.1c.04-.07.1-.13.16-.17.06-.04.14-.06.22-.06h.12l-.03.17h-.06l-.07-.02c-.04 0-.1 0-.13.03-.04.02-.07.04-.1.08-.04.03-.06.08-.08.14-.02.05-.03.12-.03.2v.6h-.17v-.92zm1.3.73l.37-.97h.18l-.57 1.47c-.03.1-.08.16-.13.2-.06.07-.13.1-.24.1-.05 0-.1 0-.15-.02l.03-.16c.04.02.08.02.12.02.06 0 .1-.02.14-.05l.08-.16.1-.25-.5-1.17h.18l.4.98zm2.4 0c-.05.07-.12.13-.2.17-.08.03-.16.05-.24.05-.1 0-.18 0-.25-.04l-.2-.13c-.04-.06-.08-.12-.1-.2-.04-.07-.06-.15-.06-.24 0-.08.03-.16.06-.23.03-.08.07-.14.12-.2.05-.05.12-.1.2-.13.06-.03.15-.04.24-.04.08 0 .16.02.24.06.08.04.15.1.2.17v-.2h.17v1.76h-.17v-.8zm-.87-.4c0 .08 0 .14.02.2.02.05.05.1.1.14.03.05.07.08.13.1.05.03.12.04.18.04.07 0 .13 0 .18-.04.07-.02.12-.05.16-.1l.1-.14.02-.2c0-.06 0-.12-.03-.18-.02-.05-.05-.1-.1-.14-.03-.05-.08-.08-.14-.1-.04-.03-.1-.04-.17-.04-.06 0-.13 0-.18.04-.06.02-.1.06-.14.1l-.08.15c-.02.05-.03.12-.03.18zm2.33.6v-.1-.1h-.02c-.02.06-.07.12-.15.16-.07.04-.15.06-.23.06-.15 0-.26-.04-.34-.13-.07-.1-.1-.2-.1-.36v-.7h.16v.63c0 .06 0 .12.02.17 0 .05.02.1.05.13l.1.08c.05.02.1.03.16.03.04 0 .1 0 .13-.03.03 0 .07-.04.1-.08.04-.04.06-.08.08-.14.02-.06.03-.13.03-.2v-.6h.18V101h-.15zm1.5-.68c-.02-.1-.05-.2-.12-.27-.05-.07-.15-.1-.27-.1-.05 0-.1 0-.15.02-.05.02-.1.05-.13.1-.04.02-.07.06-.1.1l-.03.15h.8zm.16.06v.09H292c0 .05.02.1.04.16.02.05.05.1.1.13.03.04.07.07.12.1.05.02.1.03.17.03.1 0 .16-.02.23-.06.06-.04.1-.1.14-.14l.13.1c-.07.1-.15.15-.23.2-.1.02-.18.04-.27.04-.1 0-.17 0-.24-.04-.07-.03-.13-.08-.18-.13-.06-.06-.1-.12-.13-.2-.04-.07-.05-.15-.05-.24 0-.08 0-.16.04-.23.02-.08.06-.14.1-.2.07-.05.13-.1.2-.13s.15-.04.23-.04c.1 0 .18 0 .25.04.07.03.12.08.17.13.05.05.08.1.1.18.03.07.04.15.04.23zm.98-.28c-.03-.04-.07-.08-.12-.1-.05-.05-.1-.06-.17-.06h-.1l-.08.04-.06.06-.02.08c0 .06.03.1.07.13.06.03.13.05.22.07.14.03.24.07.3.12.07.06.1.13.1.22 0 .07 0 .12-.03.17l-.1.1-.15.08c-.06.02-.1.02-.16.02-.1 0-.2 0-.27-.05-.08-.04-.15-.1-.2-.17l.13-.1c.03.05.07.1.13.13.05.03.1.05.18.05h.1l.1-.05c.02 0 .04-.03.06-.06l.02-.1c0-.06-.03-.1-.1-.13l-.25-.1c-.02 0-.06 0-.1-.02-.03 0-.07-.03-.1-.06-.04-.02-.07-.05-.1-.1l-.02-.12c0-.06 0-.1.04-.16.02-.04.05-.07.1-.1.03-.03.07-.05.12-.06.05-.02.1-.02.16-.02.08 0 .16.02.23.05.08.04.14.1.18.16l-.12.1zm1-.13h-.32v.78c.02.04.03.06.05.07l.06.04H294.9c.03 0 .06-.02.08-.03v.14c-.02.02-.05.02-.1.03h-.2c-.03 0-.06-.03-.1-.05l-.06-.1c-.02-.04-.03-.1-.03-.15v-.73h-.25v-.14h.24v-.33h.16v.33h.33v.14zm.44 1.02h-.16v-1.17h.16V101zm.04-1.62c0 .03 0 .06-.04.08-.02.03-.05.04-.08.04s-.06 0-.08-.04c-.03-.02-.04-.05-.04-.08 0-.04 0-.06.04-.1l.08-.02c.03 0 .06 0 .08.03.03.02.04.04.04.08zm1.57 1.03c0 .1 0 .18-.04.25-.04.08-.08.14-.14.2-.05.05-.12.1-.2.13-.07.03-.16.04-.25.04-.08 0-.16 0-.24-.04-.07-.03-.14-.08-.2-.13-.05-.06-.1-.12-.12-.2-.03-.07-.05-.15-.05-.24 0-.08 0-.16.04-.23.03-.08.07-.14.13-.2.05-.05.12-.1.2-.13.07-.03.15-.04.24-.04.1 0 .2 0 .26.04.08.03.15.08.2.13.06.06.1.12.13.2.02.07.03.15.03.24zm-.17 0c0-.05 0-.12-.04-.17-.02-.06-.05-.1-.08-.15l-.14-.1c-.06-.03-.12-.04-.2-.04-.06 0-.12 0-.17.04-.06.02-.1.06-.14.1-.05.04-.08.1-.1.15-.02.05-.03.12-.03.18 0 .08 0 .14.03.2.02.05.05.1.1.14.03.05.07.08.13.1.05.03.1.04.18.04.08 0 .14 0 .2-.04.05-.02.1-.05.14-.1l.08-.15c.03-.06.04-.12.04-.2zm.7-.57v.2c.04-.07.1-.13.17-.17.07-.04.15-.06.23-.06.15 0 .26.04.34.13.07.1.1.2.1.35v.7h-.16v-.63c0-.06 0-.12-.02-.17 0-.05-.02-.1-.05-.13-.02-.03-.05-.06-.1-.08-.04-.02-.1-.03-.15-.03-.04 0-.1 0-.13.03-.05.02-.1.04-.12.08-.04.04-.06.1-.08.14-.02.05-.03.12-.03.2v.6h-.17v-.92-.12-.13h.15zm1.52 1.04c0 .04 0 .07-.04.1-.02.03-.05.04-.1.04-.03 0-.07 0-.1-.03-.02-.03-.03-.06-.03-.1 0-.03.02-.06.05-.1.02-.02.06-.03.1-.03.04 0 .07 0 .1.04.02.03.03.06.03.1z" fill="#FFF"/><path d="M51.2 32.07h.78c.08 0 .17 0 .26.03.08.02.16.05.22.1.07.04.13.1.17.17.04.07.06.16.06.27 0 .13-.05.23-.12.32-.07.08-.17.14-.3.17.1.02.15.04.2.07.08.03.13.06.18.1.04.06.07.1.1.18.02.06.04.13.04.2 0 .12-.03.22-.07.3-.05.08-.1.15-.18.2-.08.05-.17.1-.27.12-.1.02-.22.04-.34.04h-.74v-2.27zm.3.96h.43c.06 0 .1 0 .17-.03.05 0 .1-.03.14-.06l.1-.1c.02-.05.03-.1.03-.17 0-.12-.04-.2-.13-.26-.1-.04-.2-.07-.36-.07h-.37v.7zm0 1.04h.4c.08 0 .14 0 .2-.02.08 0 .14-.03.2-.06.05-.04.1-.08.13-.13s.05-.12.05-.2c0-.13-.05-.23-.14-.3-.1-.05-.23-.08-.4-.08h-.43v.77zm3.28-.5c0 .12-.02.23-.07.33-.03.1-.1.18-.16.25-.07.07-.16.13-.26.17-.1.04-.2.06-.32.06s-.23-.02-.33-.06c-.1-.04-.18-.1-.26-.17-.07-.07-.13-.15-.17-.25-.04-.1-.06-.2-.06-.33 0-.1.02-.22.06-.32.04-.1.1-.18.17-.25.08-.07.16-.13.26-.17.1-.03.2-.05.33-.05.1 0 .22.02.32.05.1.04.2.1.26.17.07.07.13.15.17.25.06.1.08.2.08.32zm-.32 0c0-.07 0-.14-.03-.2-.02-.07-.06-.13-.1-.18-.04-.06-.1-.1-.16-.13s-.13-.04-.2-.04c-.1 0-.17 0-.23.04-.06.03-.12.07-.16.12-.04.04-.07.1-.1.17-.02.06-.03.13-.03.2 0 .08 0 .15.03.2l.1.2c.04.04.1.08.16.1.06.04.14.05.22.05.08 0 .15 0 .2-.04.08-.03.13-.07.17-.12.04-.05.08-.1.1-.18.02-.06.03-.13.03-.2zm1.68-.22c0-.1-.04-.2-.1-.25-.07-.05-.16-.08-.28-.08-.08 0-.16.02-.24.05-.07.03-.14.07-.2.13l-.15-.2c.08-.07.17-.12.27-.16.1-.04.23-.06.35-.06.1 0 .2 0 .28.04.08.03.14.08.2.13.04.05.08.1.1.2.03.06.05.14.05.22V34.2c0 .05 0 .1.02.14h-.27l-.03-.22c-.06.08-.13.14-.22.2-.08.03-.18.05-.3.05-.06 0-.12 0-.2-.02l-.16-.08c-.06-.03-.1-.08-.14-.14-.03-.06-.05-.14-.05-.22 0-.1.03-.2.1-.27.06-.06.14-.12.24-.15.1-.04.2-.06.34-.07h.38v-.05zm-.07.26l-.24.02c-.08 0-.15.02-.22.04-.05.02-.1.05-.15.1-.04.02-.06.08-.06.14 0 .05 0 .08.02.1 0 .04.04.07.07.1l.1.03h.1c.14 0 .25-.03.33-.12.07-.07.1-.18.1-.3v-.1h-.06zm.86-.46V33v-.18h.27v.13l.02.12c.05-.1.1-.16.2-.2.08-.07.17-.1.27-.1.04 0 .08 0 .1.02v.27l-.14-.02c-.07 0-.14 0-.2.04-.04.02-.1.05-.12.1-.04.04-.07.1-.08.15-.02.06-.03.12-.03.2v.8h-.3v-1.2zm2.3.96c-.04.1-.12.16-.22.2-.1.05-.2.08-.3.08-.12 0-.23-.02-.32-.06-.1-.05-.18-.1-.24-.18-.07-.07-.12-.15-.16-.25-.03-.1-.05-.22-.05-.33 0-.1.02-.2.05-.3.04-.1.1-.2.16-.26.07-.07.15-.12.24-.16.1-.04.2-.06.3-.06.14 0 .24.02.34.07.1.06.16.12.2.2h.02V31.9h.3v2.44h-.3v-.24zm-1-.53c0 .07.03.14.05.2.02.07.05.13.1.18.04.06.1.1.15.13.06.03.13.04.22.04.07 0 .14 0 .2-.04.07-.03.12-.07.17-.12.04-.05.08-.1.1-.18.03-.06.04-.13.04-.2 0-.08 0-.15-.04-.2-.02-.08-.06-.14-.1-.2-.05-.04-.1-.08-.16-.1-.07-.04-.14-.05-.2-.05-.1 0-.17 0-.23.04-.06.03-.1.07-.16.12-.04.04-.07.1-.1.17 0 .06-.03.13-.03.2zm3.6.77h-.32v-1.9l-.42.36-.18-.2.65-.53h.27v2.27zM73.5 33.23h.7v.27h-.7v.7h-.28v-.7h-.7v-.27h.7v-.7h.27v.7zm2.03 1.1h-.35l.98-2.26h.3l.97 2.27h-.36l-.23-.56h-1.08l-.23.56zm.34-.83h.85l-.42-1.06-.43 1.06zm3.04.6c-.04.1-.12.16-.22.2-.1.05-.2.08-.3.08-.13 0-.24-.02-.33-.06-.1-.05-.17-.1-.24-.18-.06-.07-.1-.15-.14-.25-.04-.1-.06-.22-.06-.33 0-.1.02-.2.06-.3.03-.1.08-.2.15-.26.08-.07.16-.12.25-.16.1-.04.2-.06.3-.06.14 0 .25.02.34.07.08.06.15.12.2.2V31.9h.3v2.44h-.28v-.24zm-1-.53c0 .07.03.14.05.2.02.07.05.13.1.18.04.06.1.1.15.13.06.03.13.04.22.04.07 0 .14 0 .2-.04.07-.03.12-.07.17-.12.03-.05.07-.1.1-.18.02-.06.03-.13.03-.2 0-.08 0-.15-.04-.2l-.1-.2c-.06-.04-.1-.08-.17-.1-.07-.04-.14-.05-.2-.05-.1 0-.17 0-.23.04-.06.03-.1.07-.16.12-.04.04-.07.1-.1.17 0 .06-.03.13-.03.2zm3.05.53c-.06.1-.14.16-.24.2-.1.05-.2.08-.3.08-.12 0-.22-.02-.32-.06-.1-.05-.17-.1-.24-.18-.06-.07-.1-.15-.15-.25-.05-.1-.06-.22-.06-.33 0-.1 0-.2.05-.3.03-.1.08-.2.15-.26.06-.07.14-.12.24-.16.08-.04.2-.06.3-.06.12 0 .23.02.32.07.1.06.17.12.22.2V31.9h.3v2.44h-.28v-.24zm-1-.53c0 .07 0 .14.03.2.02.07.06.13.1.18.04.06.1.1.15.13.07.03.14.04.22.04.08 0 .15 0 .2-.04.08-.03.13-.07.17-.12.05-.05.08-.1.1-.18.03-.06.05-.13.05-.2 0-.08-.02-.15-.04-.2l-.1-.2c-.05-.04-.1-.08-.17-.1-.06-.04-.13-.05-.2-.05-.1 0-.16 0-.23.04-.06.03-.1.07-.15.12-.04.04-.08.1-.1.17-.02.06-.03.13-.03.2zm2.64-1.5h.77c.1 0 .17 0 .26.03.08.02.16.05.23.1.07.04.12.1.16.17.04.07.06.16.06.27 0 .13-.03.23-.1.32-.08.08-.17.14-.3.17.08.02.15.04.2.07l.17.1c.04.06.08.1.1.18.03.06.04.13.04.2 0 .12-.03.22-.08.3-.04.08-.1.15-.18.2-.08.05-.17.1-.27.12-.1.02-.22.04-.33.04h-.75v-2.27zm.3.96h.42c.06 0 .12 0 .17-.03.05 0 .1-.03.14-.06l.1-.1c0-.05.03-.1.03-.17 0-.12-.05-.2-.14-.26-.1-.04-.2-.07-.36-.07h-.36v.7zm0 1.04h.4c.07 0 .14 0 .2-.02.07 0 .13-.03.2-.06.04-.04.1-.08.12-.13.03-.05.05-.12.05-.2 0-.13-.05-.23-.14-.3-.1-.05-.22-.08-.4-.08h-.42v.77zm3.27-.5c0 .12-.02.23-.06.33-.03.1-.1.18-.17.25s-.16.13-.26.17c-.1.04-.2.06-.32.06s-.22-.02-.32-.06c-.1-.04-.2-.1-.26-.17-.08-.07-.13-.15-.17-.25-.05-.1-.07-.2-.07-.33 0-.1.02-.22.07-.32.04-.1.1-.18.17-.25s.16-.13.26-.17c.1-.03.2-.05.32-.05s.22.02.32.05c.1.04.2.1.26.17.08.07.14.15.18.25.05.1.07.2.07.32zm-.3 0c0-.07-.02-.14-.05-.2-.02-.07-.05-.13-.1-.18-.04-.06-.1-.1-.15-.13-.07-.03-.14-.04-.22-.04-.08 0-.15 0-.22.04-.06.03-.1.07-.16.12-.04.04-.07.1-.1.17-.02.06-.03.13-.03.2 0 .08 0 .15.04.2.02.08.05.14.1.2.04.04.1.08.15.1.07.04.14.05.22.05.08 0 .15 0 .22-.04.06-.03.1-.07.15-.12.05-.05.08-.1.1-.18.03-.06.04-.13.04-.2zm1.66-.22c0-.1-.03-.2-.1-.25-.07-.05-.16-.08-.27-.08-.1 0-.17.02-.24.05-.08.03-.14.07-.2.13l-.16-.2c.08-.07.17-.12.28-.16.1-.04.22-.06.35-.06.1 0 .2 0 .27.04.08.03.15.08.2.13.05.05.1.1.1.2.04.06.05.14.05.22V34.2c0 .05 0 .1.02.14h-.27c-.02-.08-.02-.15-.02-.22-.07.08-.14.14-.22.2-.1.03-.2.05-.3.05-.06 0-.13 0-.2-.02-.06-.02-.12-.04-.17-.08-.05-.03-.1-.08-.13-.14-.04-.06-.06-.14-.06-.22 0-.1.04-.2.1-.27.06-.06.14-.12.24-.15.1-.04.22-.06.35-.07h.38v-.05zm-.07.26l-.23.02c-.08 0-.16.02-.22.04s-.1.05-.15.1c-.05.02-.07.08-.07.14 0 .05 0 .08.03.1l.08.1.1.03h.1c.15 0 .26-.03.34-.12.07-.07.1-.18.1-.3v-.1h-.06zm.86-.46V33v-.18h.28v.25h.02c.04-.1.1-.16.2-.2.07-.07.16-.1.26-.1.05 0 .1 0 .12.02v.27l-.15-.02c-.07 0-.13 0-.2.04-.04.02-.1.05-.12.1-.04.04-.06.1-.08.15-.02.06-.02.12-.02.2v.8h-.3v-1.2zm2.32.96c-.06.1-.14.16-.24.2-.1.05-.2.08-.3.08-.13 0-.23-.02-.33-.06-.1-.05-.17-.1-.24-.18-.06-.07-.12-.15-.15-.25-.04-.1-.06-.22-.06-.33 0-.1.02-.2.06-.3.03-.1.1-.2.15-.26.07-.07.15-.12.25-.16.1-.04.2-.06.3-.06.13 0 .24.02.33.07.1.06.17.12.23.2V31.9h.3v2.44h-.3v-.24zm-1-.53c0 .07 0 .14.03.2.02.07.05.13.1.18.04.06.1.1.15.13.07.03.14.04.22.04.08 0 .15 0 .2-.04.07-.03.13-.07.17-.12.06-.05.1-.1.12-.18.02-.06.03-.13.03-.2 0-.08 0-.15-.03-.2l-.1-.2c-.05-.04-.1-.08-.17-.1-.06-.04-.13-.05-.2-.05-.1 0-.16 0-.23.04-.06.03-.1.07-.15.12-.05.04-.08.1-.1.17-.02.06-.03.13-.03.2zM207.4 41.75c-.04-.07-.1-.12-.18-.16-.08-.05-.16-.07-.26-.07-.05 0-.1 0-.15.02l-.14.07c-.04.03-.07.07-.1.12-.03.04-.04.1-.04.16s0 .12.04.16c.02.04.05.07.1.1l.14.08.18.06.24.08c.08.03.15.07.2.12.08.05.13.1.17.18.03.08.05.17.05.28 0 .12-.02.22-.07.3-.04.1-.1.17-.17.22-.06.06-.15.1-.24.13-.1.04-.2.05-.3.05-.14 0-.28-.03-.4-.08-.14-.06-.25-.14-.34-.25l.25-.2c.05.07.12.14.2.2.1.04.2.06.3.06.06 0 .1 0 .16-.02l.15-.07.1-.13c.03-.05.05-.1.05-.18 0-.08-.02-.13-.05-.18l-.1-.12-.18-.08-.2-.07c-.08-.02-.16-.04-.23-.08l-.2-.1c-.04-.06-.1-.12-.12-.2-.03-.06-.05-.15-.05-.25 0-.12.02-.22.07-.3.04-.08.1-.14.18-.2.07-.05.15-.1.25-.12.1-.02.18-.03.28-.03.13 0 .25.02.37.07.1.05.2.1.28.2l-.23.2zm1.75.7c-.03-.04-.08-.08-.15-.1-.06-.05-.13-.06-.2-.06-.08 0-.15 0-.2.03-.07.03-.12.07-.17.12-.04.05-.07.1-.1.18-.02.06-.03.13-.03.2 0 .08 0 .15.03.2l.1.2c.05.04.1.08.16.1.05.04.12.05.2.05.08 0 .15 0 .2-.04.07-.03.13-.07.17-.12l.2.18c-.07.07-.15.13-.24.17-.1.05-.2.07-.33.07-.12 0-.22-.02-.32-.06-.1-.04-.2-.1-.26-.16-.07-.07-.13-.16-.17-.25-.05-.1-.07-.2-.07-.33 0-.12.02-.23.06-.33.05-.1.1-.17.17-.24.1-.08.17-.13.27-.17.1-.05.2-.07.32-.07.1 0 .2.03.3.07.12.04.2.1.27.18l-.22.18zm.52-.05v-.15c0-.07 0-.13-.02-.17h.3v.26c.05-.1.12-.16.2-.2.08-.07.17-.1.28-.1.04 0 .08 0 .1.02v.28c-.04-.02-.1-.02-.14-.02-.08 0-.14.02-.2.05-.05.03-.1.06-.13.1l-.08.16c-.02.07-.03.13-.03.2v.8h-.3v-1.2zm2.2.3c0-.06 0-.12-.02-.17-.02-.05-.04-.1-.08-.13-.03-.04-.08-.07-.13-.1-.05-.02-.1-.03-.2-.03-.05 0-.1 0-.17.03l-.14.1c-.05.03-.08.08-.1.13-.03.05-.05.1-.05.17h.9zm.32.12v.05l-.02.05h-1.2c0 .07 0 .13.04.2.03.04.06.1.1.13.05.04.1.08.16.1.06.02.12.04.2.04.1 0 .18-.04.26-.08.07-.05.13-.1.17-.16l.22.17c-.08.1-.17.18-.28.23-.1.05-.23.08-.37.08-.1 0-.22-.02-.32-.06-.1-.04-.18-.1-.25-.16-.07-.07-.13-.16-.17-.25-.04-.1-.06-.2-.06-.33 0-.12.02-.23.06-.33.04-.1.1-.17.16-.24.06-.07.15-.13.24-.17.1-.05.2-.07.3-.07.13 0 .23.02.32.06.1.02.17.08.23.15.05.06.1.15.13.24.04.1.06.2.06.32zm1.52-.12c0-.06-.02-.12-.03-.17-.03-.05-.06-.1-.1-.13-.03-.04-.07-.07-.12-.1-.06-.02-.12-.03-.2-.03-.05 0-.1 0-.17.03l-.14.1c-.04.03-.07.08-.1.13s-.04.1-.05.17h.92zm.3.12v.1h-1.2c0 .07 0 .13.04.2.02.04.06.1.1.13.05.04.1.08.16.1.06.02.12.04.2.04.1 0 .18-.04.25-.08.08-.05.14-.1.18-.16l.2.17c-.07.1-.17.18-.28.23-.1.05-.23.08-.36.08-.1 0-.22-.02-.3-.06-.1-.04-.2-.1-.27-.16-.07-.07-.12-.16-.16-.25-.04-.1-.06-.2-.06-.33 0-.12.03-.23.07-.33.03-.1.1-.17.16-.24.07-.07.15-.13.25-.17.1-.05.2-.07.3-.07.12 0 .22.02.3.06.1.02.18.08.24.15.07.06.12.15.15.24.03.1.05.2.05.32zm.7-.74v.26h.02l.07-.12.13-.08c.04-.03.1-.05.14-.06.05-.02.1-.03.16-.03.1 0 .18.02.25.05.07.04.13.08.18.14.05.05.08.12.1.2.03.07.04.15.04.23v.94h-.3v-.85c0-.06 0-.12-.02-.17 0-.06-.03-.1-.05-.15-.03-.04-.06-.08-.1-.1-.05-.03-.1-.04-.18-.04-.12 0-.22.03-.3.12-.07.1-.1.22-.1.37v.8h-.3v-1.2-.15l-.02-.17h.28zm3.53-.33c-.04-.07-.1-.12-.18-.16-.08-.05-.16-.07-.26-.07-.04 0-.1 0-.15.02l-.14.07-.1.12c-.02.04-.03.1-.03.16s0 .12.03.16l.1.1.15.08.18.06.24.08c.08.03.15.07.2.12.08.05.13.1.17.18.04.08.06.17.06.28 0 .12-.02.22-.07.3-.04.1-.1.17-.17.22-.07.06-.16.1-.25.13-.1.04-.2.05-.3.05-.13 0-.27-.03-.4-.08-.13-.06-.25-.14-.33-.25l.24-.2c.07.07.14.14.23.2.1.04.2.06.3.06.04 0 .1 0 .15-.02l.15-.07.1-.13c.03-.05.05-.1.05-.18 0-.08-.02-.13-.05-.18-.03-.05-.07-.08-.12-.12-.03-.03-.1-.06-.16-.08l-.2-.07c-.08-.02-.15-.04-.22-.08l-.2-.1c-.04-.06-.1-.12-.12-.2-.04-.06-.05-.15-.05-.25 0-.12.02-.22.07-.3.04-.08.1-.14.18-.2.07-.05.15-.1.25-.12.1-.02.18-.03.28-.03.13 0 .25.02.37.07.1.05.2.1.28.2l-.23.2zm1 .56c.03-.07.1-.13.18-.2.1-.04.2-.07.3-.07.1 0 .18.02.25.05.07.04.13.08.18.14.04.05.08.12.1.2.02.07.03.15.03.23v.94h-.3v-.85c0-.06 0-.12-.02-.17 0-.06-.03-.1-.05-.15l-.1-.1c-.05-.03-.1-.04-.18-.04-.12 0-.22.04-.3.13-.07.1-.1.2-.1.36v.8h-.3v-2.43h.3v1.14zm2.5.3c0-.1-.04-.2-.1-.24-.07-.06-.16-.08-.28-.08-.08 0-.16 0-.24.05-.07.03-.14.07-.2.12l-.15-.2c.08-.06.17-.1.27-.16.1-.05.23-.07.35-.07.1 0 .2.02.3.05.07.03.13.07.18.13.05.06.1.12.12.2.02.07.04.15.04.23V43.45c0 .05 0 .1.02.13h-.27c-.03-.08-.04-.15-.04-.22-.06.08-.13.14-.22.2-.08.03-.18.05-.3.05-.06 0-.12 0-.2-.02-.05 0-.1-.03-.16-.07-.06-.04-.1-.08-.14-.14-.03-.07-.05-.15-.05-.23 0-.12.02-.2.08-.28.07-.08.15-.13.25-.16.1-.04.2-.06.34-.07l.38-.02v-.04zm-.08.27h-.23l-.22.05-.16.08c-.04.04-.06.1-.06.16 0 .04 0 .08.03.1 0 .04.04.07.07.08.03.02.06.04.1.04l.1.02c.15 0 .26-.05.33-.13.08-.1.12-.2.12-.32v-.08h-.08zm.87-.47v-.15-.17h.27c.02.03.02.08.02.13v.13h.02c.04-.1.1-.16.18-.2.08-.07.18-.1.28-.1.05 0 .1 0 .12.02v.28c-.06-.02-.1-.02-.15-.02-.07 0-.14.02-.2.05-.04.03-.1.06-.12.1-.04.05-.07.1-.08.16-.02.07-.03.13-.03.2v.8h-.3v-1.2zm1.46 1.2h-.3v-1.52h.3v1.5zm.06-2.07c0 .05-.02.1-.06.14-.04.03-.1.05-.15.05-.05 0-.1-.02-.14-.06-.03-.03-.04-.08-.04-.13 0-.06 0-.1.05-.14.05-.05.1-.07.15-.07.06 0 .1.02.15.06.04.03.06.07.06.13zm.74.55v.13l.02.13c.02-.05.05-.08.08-.12l.12-.08c.04-.03.1-.05.14-.06.05-.02.1-.03.16-.03.1 0 .18.02.25.05.07.04.13.08.18.14.05.05.08.12.1.2.02.07.04.15.04.23v.94h-.32v-.85-.17l-.06-.15c-.03-.04-.06-.08-.1-.1-.05-.03-.1-.04-.18-.04-.12 0-.22.03-.3.12-.07.1-.1.22-.1.37v.8h-.3v-1.2-.15l-.02-.17h.28zm1.7 1.77c.08.08.16.14.26.18.1.05.2.07.3.07.1 0 .2 0 .26-.04.07-.03.13-.07.17-.12.03-.05.06-.1.08-.18l.02-.22v-.2c-.06.1-.13.16-.23.2-.1.05-.2.07-.3.07-.12 0-.23 0-.32-.05-.1-.04-.18-.1-.25-.17-.06-.07-.1-.15-.15-.25-.04-.1-.05-.2-.05-.3 0-.1 0-.22.05-.3.04-.1.1-.2.15-.26.07-.08.15-.13.24-.17.1-.05.2-.07.32-.07.1 0 .2.03.3.07.1.05.2.12.25.22v-.24h.3v1.44c0 .1 0 .22-.04.32-.02.1-.07.2-.14.27-.06.08-.15.15-.26.2-.1.04-.24.06-.4.06-.13 0-.26-.02-.4-.07-.13-.06-.24-.12-.34-.2l.2-.25zm.1-1.03c0 .07.02.14.04.2.02.07.06.12.1.17.04.04.1.08.16.1.06.04.13.05.2.05.1 0 .16 0 .22-.04.07-.02.12-.05.17-.1l.1-.17c0-.07.03-.14.03-.2 0-.08-.02-.15-.04-.22l-.12-.16c-.04-.05-.1-.08-.16-.1-.06-.04-.13-.06-.2-.06-.1 0-.16.02-.22.05-.06.03-.12.06-.16.1-.04.06-.08.12-.1.18l-.03.22z" fill="#9B9B9B"/><path d="M46.92 38.2h189.63M93.74 38.2v9.25M145.9 38.2v9.07M179.2 38.37v9.08" stroke="#979797" stroke-width=".5" stroke-linecap="square" opacity=".5"/><path d="M64.9 91.53c0 .23-.05.43-.13.6-.08.17-.2.3-.33.42-.14.1-.3.2-.47.25-.17.05-.35.08-.54.08-.17 0-.33-.02-.5-.07-.14-.03-.28-.1-.4-.18-.13-.08-.24-.18-.33-.3-.1-.12-.16-.25-.2-.4l.8-.25c.05.13.13.24.23.32.1.08.24.12.4.12.15 0 .28-.05.4-.14.1-.1.16-.23.16-.4 0-.12-.03-.2-.08-.3-.05-.06-.1-.12-.18-.17l-.25-.08-.3-.03c-.12 0-.28 0-.45.04-.17.03-.33.07-.46.12l.08-2.16h2.32v.76h-1.52l-.04.6.2-.03h.18c.2 0 .37.02.54.07.16.05.3.13.43.23.12.1.2.22.28.37.08.15.1.33.1.53zM166.67 81.38l-.57-.82-.6.82h-1l1.06-1.4-.96-1.26h1.02l.5.7.5-.7h1l-.97 1.27 1.05 1.38h-1.03zm1.3-1.47v-.48l.92-.83.1-.14c.03-.05.04-.1.04-.17s-.02-.12-.06-.16c-.04-.04-.1-.06-.18-.06-.08 0-.14.03-.2.1-.05.05-.08.13-.08.22l-.6-.07c.02-.12.06-.23.1-.33.06-.1.13-.18.2-.25.1-.07.18-.12.3-.16.1-.04.2-.06.3-.06.12 0 .22.02.33.04.1.03.2.08.27.14.08.05.15.13.2.22.04.1.07.2.07.32 0 .08-.03.16-.05.23-.02.05-.05.12-.1.17-.03.06-.07.1-.12.16l-.15.14-.47.4h.9v.54h-1.72zm3.66-.3v-.66h2.83v.65h-2.83zm0 .98v-.66h2.83v.66h-2.83zm7.64-.45c0 .23-.04.43-.12.6-.1.17-.2.3-.33.42-.14.1-.3.2-.47.25-.18.06-.35.08-.54.08-.16 0-.32-.02-.48-.06-.15-.05-.3-.1-.42-.2-.13-.07-.24-.18-.33-.3-.1-.1-.15-.25-.2-.4l.82-.25c.03.13.1.24.2.33.12.08.25.13.4.13.15 0 .28-.05.4-.14.1-.1.17-.24.17-.43 0-.1-.03-.2-.07-.27-.05-.08-.1-.14-.18-.18-.08-.05-.16-.08-.25-.1l-.28-.02c-.14 0-.3 0-.47.04-.17.03-.33.07-.46.12l.1-2.16h2.3v.77h-1.52l-.03.6c.06-.02.12-.03.2-.03h.18c.2 0 .37.02.53.07.17.05.32.13.44.23s.22.23.3.38c.06.16.1.33.1.53zm.63-.22v-.48l.9-.83c.06-.05.1-.1.12-.14.03-.05.05-.1.05-.17s-.02-.12-.07-.16c-.04-.04-.1-.06-.17-.06-.1 0-.15.03-.2.1-.06.05-.1.13-.1.22l-.58-.07c0-.12.05-.23.1-.33s.12-.18.2-.25c.08-.07.17-.12.28-.16.1-.04.2-.06.32-.06.1 0 .2.02.32.04.1.03.2.08.27.14.08.05.15.13.2.22.04.1.07.2.07.32 0 .08 0 .16-.03.23-.02.05-.05.12-.1.17-.03.06-.07.1-.12.16l-.15.14-.46.4h.87v.54h-1.7zm5.42.2v1.12h-.7V80.1h-1.13v-.67h1.12V78.3h.7v1.13h1.13v.67h-1.13zm4.27 1.28V78.6l-.7.55-.48-.64 1.25-.9h.82v3.78h-.9zm2.3 0v-.75l1.47-1.33c.1-.1.17-.18.22-.27.05-.1.08-.2.08-.3 0-.15-.04-.26-.13-.34-.08-.1-.2-.14-.34-.14s-.26.06-.36.16c-.1.1-.15.24-.17.4l-.85-.1c.02-.2.07-.37.15-.52.1-.15.2-.27.32-.38.12-.1.27-.18.43-.24.17-.05.34-.08.53-.08.17 0 .34.02.5.07.17.04.3.12.44.2.13.1.23.23.3.38.1.14.12.3.12.5 0 .14 0 .27-.05.37-.03.1-.08.2-.15.3-.06.1-.13.18-.2.26l-.26.24-.87.78h1.53v.78h-2.73zm3.38-1.47v-.48l.9-.83c.05-.05.1-.1.12-.14.02-.05.04-.1.04-.17s-.02-.12-.06-.16c-.05-.04-.1-.06-.18-.06-.08 0-.15.03-.2.1-.05.05-.08.13-.1.22l-.58-.07c.02-.12.05-.23.1-.33s.12-.18.2-.25c.08-.07.18-.12.28-.16.1-.04.2-.06.33-.06.1 0 .2.02.3.04.1.03.2.08.3.14.07.05.13.13.18.22.06.1.08.2.08.32 0 .08 0 .16-.03.23l-.1.17c-.03.06-.08.1-.12.16l-.16.14-.46.4h.88v.54h-1.7zM166.67 92.78l-.57-.82-.6.82h-1l1.06-1.4-.96-1.26h1.02l.5.7.5-.7h1l-.97 1.26 1.05 1.4h-1.03zm1.3-1.47v-.48l.92-.83.1-.15c.03-.05.04-.1.04-.16 0-.07-.02-.13-.06-.17-.04-.04-.1-.06-.18-.06-.08 0-.14.03-.2.1-.05.05-.08.13-.08.23l-.6-.07c.02-.13.06-.24.1-.34.06-.1.13-.2.2-.26l.3-.15c.1-.05.2-.06.3-.06.12 0 .22 0 .33.04.1.03.2.07.27.13.08.07.15.14.2.23.04.1.07.2.07.32 0 .1-.03.16-.05.23-.02.07-.05.13-.1.2-.03.04-.07.1-.12.14l-.15.15-.47.4h.9v.54h-1.72zm3.66-.3v-.67h2.83V91h-2.83zm0 .98v-.66h2.83v.66h-2.83zm4.9.8v-.75L178 90.7c.1-.1.16-.2.22-.28.06-.1.1-.2.1-.3 0-.14-.06-.25-.14-.34-.1-.08-.2-.12-.34-.12-.15 0-.27.05-.37.16-.1.1-.15.24-.17.4l-.86-.1c.02-.2.08-.37.16-.52.08-.15.2-.28.32-.38.13-.1.27-.2.44-.24.16-.06.34-.1.52-.1s.35.04.5.08c.18.05.32.12.45.22s.23.2.3.36c.08.15.12.32.12.5 0 .15-.02.27-.05.38l-.15.3c-.06.1-.13.18-.2.26l-.26.24-.9.78h1.56v.78h-2.74zm6.2-1.25c0 .23-.05.43-.13.6-.1.17-.2.3-.33.42-.14.1-.3.2-.47.25-.17.05-.35.08-.54.08-.17 0-.33-.02-.5-.07-.14-.03-.28-.1-.4-.18-.14-.08-.25-.18-.34-.3-.1-.12-.15-.25-.2-.4l.82-.25c.04.13.1.24.22.32.1.08.24.12.4.12.14 0 .28-.05.4-.14.1-.1.16-.23.16-.4 0-.12-.03-.2-.07-.3-.05-.06-.1-.12-.18-.17l-.25-.08-.28-.03c-.13 0-.3 0-.46.04-.17.03-.33.07-.46.12l.1-2.16h2.3v.76H181l-.03.6.2-.03h.18c.2 0 .37.02.54.07.15.05.3.13.42.23s.22.22.3.37c.06.15.1.33.1.53zm3.8-.03v1.1h-.7v-1.1h-1.14v-.68h1.13v-1.1h.7v1.1h1.13v.68h-1.13zm4.27 1.28V90l-.7.54-.47-.63 1.24-.9h.83v3.78h-.9zm4.7-.74v.74h-.85v-.74h-1.78v-.75l1.54-2.3h1.08v2.3h.53v.74h-.5zm-.84-2.13h-.02l-.9 1.4h.92v-1.4zm4.28 2.14v.74h-.84v-.74h-1.78v-.75l1.54-2.3h1.08v2.3h.52v.74h-.52zm-.83-2.13l-.9 1.4h.9v-1.4zM166.67 104.35l-.57-.82-.6.82h-1l1.06-1.4-.96-1.26h1.02l.5.7.5-.7h1l-.97 1.26 1.05 1.4h-1.03zm1.3-1.47v-.5l.92-.82.1-.13c.03-.05.04-.1.04-.17 0-.06-.02-.1-.06-.15-.04-.04-.1-.06-.18-.06-.08 0-.14.03-.2.1-.05.06-.08.13-.08.23l-.6-.07c.02-.12.06-.24.1-.33.06-.1.13-.18.2-.25.1-.07.18-.12.3-.16.1-.03.2-.05.3-.05.12 0 .22.02.33.05.1.03.2.07.27.13.08.06.15.14.2.22.04.1.07.2.07.33 0 .08-.03.16-.05.23-.02.06-.05.12-.1.18l-.12.16-.15.14-.47.4h.9v.54h-1.72zm3.66-.32v-.66h2.83v.66h-2.83zm0 1v-.67h2.83v.65h-2.83zm6.04.8v-2.8l-.7.56-.47-.64 1.25-.9h.82v3.77h-.9zm5.15-1.28c0 .2-.04.4-.12.58-.08.17-.18.3-.32.43-.13.1-.3.2-.47.26-.17.06-.37.1-.57.1-.2 0-.4-.04-.58-.1-.18-.06-.34-.15-.47-.27-.14-.13-.24-.27-.32-.44-.08-.17-.12-.35-.12-.56 0-.22.04-.43.12-.6.08-.2.18-.38.3-.57l.9-1.36h1.1l-.93 1.3-.02.02c.05-.03.1-.04.14-.04l.14-.02c.16 0 .32.03.47.1.15.05.3.14.4.24.1.1.2.24.27.4.07.15.1.3.1.5zm-.9.02c0-.17-.05-.3-.16-.42-.1-.12-.25-.17-.42-.17-.18 0-.33.06-.44.17-.1.1-.16.26-.16.44 0 .17.05.3.16.43.1.1.25.17.43.17s.32-.05.43-.16c.1-.1.16-.26.16-.44zm4.36-1.28c0 .22-.04.43-.12.6-.08.2-.18.38-.3.57l-.92 1.35h-1.08l.94-1.3v-.02l-.12.03h-.14c-.17 0-.33-.02-.48-.07-.14-.07-.28-.16-.4-.27-.1-.1-.2-.23-.26-.4-.07-.14-.1-.3-.1-.5s.03-.4.1-.57c.1-.17.2-.3.33-.43.14-.12.3-.2.48-.27.2-.06.38-.1.6-.1.2 0 .4.04.57.1.18.06.34.15.47.27.13.12.24.26.32.43.08.16.12.35.12.56zm-.9 0c0-.18-.05-.32-.16-.44-.1-.12-.25-.18-.43-.18-.2 0-.34.06-.44.17-.1.1-.17.26-.17.44s.05.33.15.44c.1.1.25.17.43.17s.32-.05.43-.16c.12-.1.18-.25.18-.43z" fill="#4A4A4A"/><path d="M166.67 115.03l-.57-.8-.6.8h-1l1.06-1.4-.96-1.26h1.02l.5.7.5-.7h1l-.97 1.27 1.05 1.4h-1.03zm2.72-1.8v-.64h2.82v.64h-2.83zm0 1v-.66h2.82v.66h-2.83zm6.03.8v-2.77l-.7.54-.47-.64 1.24-.9h.82v3.77h-.9zm5.05-1.1c0 .2-.04.4-.12.54-.1.15-.2.28-.33.37-.14.1-.3.17-.46.22-.17.05-.34.07-.52.07-.17 0-.33-.02-.5-.05-.16-.04-.3-.1-.44-.18-.12-.08-.24-.2-.34-.3-.1-.14-.17-.3-.22-.47l.83-.22c.04.14.1.25.22.34.1.1.24.14.4.14.08 0 .14 0 .2-.03.07 0 .13-.04.18-.08.05-.04.1-.08.13-.15.04-.06.06-.13.06-.22 0-.1-.02-.18-.06-.24-.05-.06-.1-.1-.18-.15-.07-.03-.16-.06-.25-.07-.1-.02-.18-.03-.28-.03h-.25v-.65h.26c.1 0 .18 0 .26-.02.08 0 .15-.04.2-.07.07-.04.12-.08.16-.14.04-.05.06-.13.06-.22 0-.14-.05-.24-.15-.3-.1-.08-.2-.12-.33-.12s-.24.04-.33.12c-.1.07-.16.18-.2.3l-.82-.2c.05-.15.12-.3.2-.4.1-.13.2-.23.34-.3.1-.1.25-.15.4-.2.15-.03.3-.05.46-.05.17 0 .33.02.5.06.15.06.3.12.4.2.14.1.24.2.3.35.1.13.13.3.13.47 0 .2-.07.4-.2.53-.1.14-.26.24-.45.3.1.03.2.07.3.13.1.05.16.12.23.2.06.07.1.16.15.25.03.1.05.2.05.3zM166.17 122.54v3h-.92v-3h-1.06v-.78h3.04v.78h-1.07zm3.1 3v-1.44c0-.08-.02-.15-.03-.22 0-.07-.03-.13-.06-.18-.03-.05-.07-.1-.12-.12-.05-.03-.1-.05-.2-.05-.14 0-.26.06-.34.17-.08.1-.13.24-.13.4v1.44h-.88v-4.04h.87v1.7c.07-.1.16-.2.3-.27.13-.1.28-.13.47-.13.18 0 .33.03.46.1.12.06.22.15.3.25.07.1.13.22.16.35.02.13.04.26.04.4v1.64h-.88zm3.37-1.64c0-.14-.05-.26-.14-.35-.08-.1-.2-.15-.4-.15-.07 0-.15 0-.22.04-.07.02-.14.06-.2.1-.04.05-.1.1-.12.17-.03.07-.05.14-.05.2h1.14zm.8.34v.2h-1.93c.02.08.04.15.08.2.03.07.08.12.14.17.06.05.12.1.2.1.07.04.15.05.22.05.14 0 .26-.03.36-.08.1-.05.17-.12.23-.2l.6.4c-.1.17-.28.3-.48.4-.2.1-.45.15-.72.15-.2 0-.38-.03-.56-.1-.18-.05-.34-.14-.47-.26-.13-.12-.24-.27-.3-.44-.1-.18-.13-.38-.13-.6 0-.22.04-.42.1-.6.1-.17.2-.32.32-.44s.27-.22.44-.3c.18-.05.36-.1.57-.1.2 0 .38.05.55.1.16.08.3.17.42.3.12.12.2.27.27.45s.1.38.1.6zm3.63 1.3v-1.44-.22l-.07-.18c-.03-.05-.07-.1-.12-.12-.05-.03-.12-.05-.2-.05-.15 0-.27.06-.35.17-.08.1-.12.24-.12.4v1.44h-.87v-4.04h.88v1.7h.02c.06-.1.16-.2.3-.27.12-.1.28-.13.46-.13.2 0 .34.03.46.1.12.06.22.15.3.25.08.1.13.22.17.35.04.13.06.26.06.4v1.64h-.9zm3.05.4c-.05.14-.1.26-.18.37-.07.12-.14.2-.23.3-.1.06-.2.12-.32.16-.12.04-.26.06-.43.06-.08 0-.17 0-.25-.02-.1 0-.17-.02-.23-.04l.1-.74.14.04h.15c.13 0 .23-.02.3-.08.05-.06.1-.15.15-.27l.08-.2-1.1-2.62h.96l.6 1.7.54-1.7h.93l-1.18 3.06zm4.5-1.74c0 .18-.04.36-.1.53-.06.17-.14.32-.25.45-.1.13-.24.24-.4.3-.15.1-.33.13-.53.13-.16 0-.32-.02-.46-.1-.15-.05-.26-.14-.35-.26v1.58h-.88v-3.94h.83v.32h.02c.08-.1.2-.2.34-.28.14-.08.3-.12.5-.12s.37.04.53.1c.16.1.3.2.4.32.1.13.2.28.25.45.06.16.1.34.1.53zm-.86 0c0-.1-.02-.17-.04-.25-.03-.1-.07-.16-.12-.22-.05-.06-.12-.1-.2-.15-.07-.04-.17-.06-.27-.06s-.2.02-.27.06c-.07.04-.14.1-.2.15-.05.07-.1.14-.12.22-.03.08-.05.17-.05.25 0 .1 0 .17.04.25.03.1.07.16.12.22.06.07.13.12.2.16.08.04.17.06.27.06s.2-.03.27-.07c.08-.04.15-.1.2-.16.05-.06.1-.14.12-.22.02-.08.04-.17.04-.25zm4.22 0c0 .2-.04.4-.12.6-.08.16-.2.3-.32.44-.14.12-.3.2-.47.28-.18.07-.37.1-.57.1-.2 0-.4-.03-.57-.1-.18-.07-.34-.16-.47-.28-.14-.13-.24-.28-.32-.45-.08-.2-.12-.4-.12-.6 0-.22.04-.42.12-.6.08-.17.18-.3.32-.43.13-.13.3-.22.47-.28.18-.08.37-.1.57-.1.2 0 .4.02.57.1.18.05.33.14.47.27.13.12.24.26.32.44.08.18.12.38.12.6zm-.85 0c0-.1 0-.17-.04-.25-.04-.1-.08-.16-.13-.22-.06-.06-.12-.1-.2-.15-.08-.04-.17-.06-.27-.06s-.2.02-.28.06c-.07.04-.14.1-.2.15-.04.06-.08.13-.1.22-.03.08-.05.16-.05.25 0 .08.02.17.04.25l.13.22c.06.07.12.12.2.16.08.04.17.06.27.06s.2-.03.27-.07c.08-.04.15-.1.2-.16.06-.07.1-.14.12-.22.02-.08.03-.17.03-.25zm2.35-.67v1.02c0 .12.03.22.07.28.05.06.14.1.26.1.06 0 .1 0 .15-.02.05 0 .1 0 .12-.02v.64l-.22.06-.28.02c-.17 0-.32-.02-.45-.07-.12-.04-.2-.1-.3-.2-.06-.07-.1-.17-.14-.3-.04-.1-.05-.23-.05-.37v-1.13h-.43v-.65h.42v-.7h.86v.7h.63v.65h-.62zm2.87.37c0-.14-.04-.26-.13-.35-.1-.1-.22-.15-.4-.15-.08 0-.16 0-.23.04-.08.02-.14.06-.2.1-.05.05-.1.1-.12.17l-.06.2h1.13zm.8.34v.2h-1.93c0 .08.03.15.07.2.03.07.08.12.13.17.06.05.13.1.2.1.08.04.15.05.23.05.14 0 .26-.03.35-.08.1-.05.2-.12.25-.2l.6.4c-.12.17-.28.3-.5.4-.2.1-.43.15-.7.15-.2 0-.4-.03-.57-.1-.18-.05-.33-.14-.46-.26-.14-.12-.24-.27-.32-.44-.08-.18-.1-.38-.1-.6 0-.22.02-.42.1-.6.07-.17.17-.32.3-.44.13-.12.28-.22.46-.3.17-.05.36-.1.56-.1.2 0 .38.05.54.1.17.08.3.17.42.3.12.12.2.27.28.45.06.18.1.38.1.6zm2.3 1.3v-1.46c0-.07 0-.14-.02-.2 0-.08-.03-.14-.06-.2-.03-.04-.07-.08-.12-.1-.05-.04-.12-.06-.2-.06-.07 0-.14.02-.2.05-.06.03-.1.07-.15.12-.04.05-.07.1-.1.18l-.02.22v1.44h-.88v-2.66h.85v.37l.14-.17c.04-.06.1-.1.17-.14l.23-.1c.08-.02.17-.04.26-.04.18 0 .33.03.45.1.14.06.24.15.3.25.1.1.15.22.18.35.03.13.05.26.05.4v1.64h-.88zm3.3 0v-.37h-.02c-.03.06-.07.12-.12.17-.04.05-.1.1-.17.14l-.23.1c-.1.02-.17.03-.27.03-.18 0-.33-.02-.45-.08-.12-.07-.22-.15-.3-.25-.07-.1-.13-.22-.16-.35-.04-.13-.05-.26-.05-.4v-1.64h.88v1.64l.07.2c.03.05.08.1.12.12.05.03.12.05.2.05.16 0 .27-.07.35-.18.07-.12.1-.25.1-.4v-1.44h.9v2.66h-.86zm3.1-1.88l-.26-.17c-.1-.05-.2-.08-.32-.08-.08 0-.16.02-.23.05-.06.03-.1.1-.1.17s.04.12.12.16c.07.03.2.06.37.1.1.02.2.05.3.1.1.03.2.08.27.15.1.06.16.14.2.23.06.1.1.2.1.34 0 .16-.05.3-.12.42-.06.12-.15.2-.26.28-.1.07-.23.12-.37.15-.13.04-.27.05-.4.05-.22 0-.43-.03-.64-.1-.2-.07-.37-.17-.5-.3l.48-.53c.08.08.18.15.3.2.1.06.22.1.35.1.07 0 .14-.02.2-.06.08-.03.12-.1.12-.18 0-.08-.05-.14-.13-.18-.1-.04-.22-.08-.4-.12-.1-.02-.2-.05-.28-.1-.1-.02-.17-.07-.25-.13-.08-.06-.14-.14-.2-.23-.03-.08-.06-.2-.06-.32 0-.16.04-.3.1-.4.07-.12.16-.2.27-.28.1-.07.23-.12.36-.16.13-.03.26-.05.4-.05.2 0 .38.02.57.1.2.05.36.14.5.27l-.5.5zm2.78.24c0-.14-.05-.26-.14-.35-.1-.1-.22-.15-.4-.15-.08 0-.16 0-.23.04-.07.02-.14.06-.2.1-.04.05-.1.1-.12.17-.03.07-.05.14-.05.2h1.13zm.8.34v.2h-1.93c0 .08.03.15.07.2.03.07.08.12.14.17.07.05.13.1.2.1.08.04.16.05.23.05.14 0 .26-.03.36-.08.08-.05.16-.12.22-.2l.6.4c-.1.17-.28.3-.48.4-.2.1-.45.15-.72.15-.2 0-.38-.03-.56-.1-.18-.05-.34-.14-.47-.26-.14-.12-.25-.27-.33-.44-.07-.18-.1-.38-.1-.6 0-.22.03-.42.1-.6.08-.17.18-.32.3-.44.13-.12.3-.22.46-.3.17-.05.36-.1.57-.1.2 0 .37.05.54.1.16.08.3.17.42.3.12.12.2.27.27.45s.1.38.1.6zm2.83-2.2c0 .06 0 .12-.04.18-.02.06-.06.1-.1.15-.05.04-.1.08-.16.1-.07.03-.13.04-.2.04-.14 0-.26-.04-.36-.13-.1-.1-.14-.2-.14-.34 0-.07 0-.13.04-.2l.1-.14c.05-.05.1-.1.16-.1.06-.04.13-.05.2-.05s.13 0 .2.03l.16.1c.04.05.08.1.1.16.03.06.04.12.04.2zm-.94 3.5v-2.66h.88v2.66h-.88zm3.14-1.88c-.07-.06-.16-.12-.25-.17-.1-.05-.2-.08-.3-.08-.08 0-.15.02-.22.05-.07.03-.1.1-.1.17s.03.12.1.16l.38.1c.1.02.2.05.3.1.1.03.2.08.27.15.1.06.15.14.2.23.05.1.08.2.08.34 0 .16-.03.3-.1.42-.06.12-.15.2-.26.28-.1.07-.23.12-.36.15-.14.04-.28.05-.4.05-.23 0-.44-.03-.65-.1-.2-.07-.38-.17-.52-.3l.5-.53c.08.08.18.15.3.2.1.06.23.1.35.1.07 0 .14-.02.2-.06.08-.03.12-.1.12-.18 0-.08-.04-.14-.13-.18-.1-.04-.22-.08-.4-.12-.1-.02-.2-.05-.28-.1-.1-.02-.17-.07-.25-.13-.06-.06-.12-.14-.17-.23-.04-.08-.06-.2-.06-.32 0-.16.03-.3.1-.4.06-.12.15-.2.26-.28.1-.07.22-.12.35-.16.13-.03.26-.05.4-.05.2 0 .4.02.58.1.2.05.35.14.48.27l-.48.5zm3.46 1.88v-2.78l-.7.54-.47-.63 1.24-.9h.82v3.77h-.9zm5.05-1.1c0 .2-.04.38-.12.53-.1.16-.2.28-.33.38-.14.1-.3.17-.46.22-.17.05-.34.07-.5.07-.18 0-.35-.02-.5-.06-.18-.04-.32-.1-.46-.18-.13-.08-.25-.18-.35-.3-.1-.13-.17-.3-.22-.47l.83-.2c.04.1.1.22.22.3.1.1.25.16.42.16.07 0 .13-.02.2-.04l.17-.08c.06-.04.1-.1.13-.15.04-.06.05-.14.05-.22 0-.1-.02-.17-.06-.24-.06-.06-.12-.1-.2-.15l-.24-.07-.28-.02h-.24v-.65h.27c.1 0 .17 0 .25-.02.08 0 .15-.03.2-.07.07-.03.12-.08.16-.13.05-.06.07-.13.07-.23 0-.13-.05-.24-.15-.3-.1-.08-.2-.1-.33-.1-.14 0-.25.02-.34.1-.1.08-.16.18-.2.3l-.82-.18c.05-.16.12-.3.2-.42.1-.12.2-.22.34-.3.12-.08.26-.14.4-.18.16-.05.3-.07.47-.07.17 0 .33.03.5.07.15.04.3.1.42.2s.22.2.3.33c.07.13.1.3.1.47 0 .2-.05.4-.17.53-.12.15-.27.25-.45.3l.3.13c.08.06.16.12.22.2.06.08.1.16.15.26.03.1.05.2.05.3zm1.68.63c0 .15-.05.27-.16.37-.1.1-.24.15-.38.15-.08 0-.15-.02-.22-.05l-.17-.1c-.05-.05-.1-.1-.12-.17-.02-.06-.03-.13-.03-.2 0-.08 0-.15.04-.2.04-.07.08-.13.13-.18.05-.05.1-.08.17-.1.07-.04.14-.06.22-.06.14 0 .27.05.37.15.1.1.15.22.15.37z" fill="#DF5163"/><path d="M106.74 122.33v-2.77l-.7.54-.47-.64 1.24-.9h.83v3.77h-.9zm2.3 0v-.75l1.47-1.33c.1-.1.18-.18.24-.27.05-.1.08-.2.08-.3 0-.15-.04-.26-.12-.34-.1-.08-.2-.13-.35-.13-.15 0-.27.07-.36.17-.1.1-.16.24-.18.4l-.86-.1c.02-.2.07-.37.16-.52.08-.14.2-.27.3-.38.14-.1.3-.18.46-.24.16-.05.34-.08.52-.08s.35.02.5.07c.17.05.32.12.45.2.13.1.23.23.3.38.08.14.12.3.12.5 0 .14-.02.27-.05.37l-.15.3c-.06.1-.14.2-.22.27l-.24.23-.87.78h1.54v.78h-2.73z" fill="#4A4A4A"/><path fill="#DF5163" d="M117.53 89.93l-.57-.82-.6.83h-1l1.06-1.4-.96-1.26h1.02l.5.7.5-.7h1l-.97 1.26 1.06 1.4"/><path stroke="#4A4A4A" stroke-width=".5" d="M71.93 79.23l86.73 34.9H71.93z"/><path d="M238.76 16.9h68.2V60h-68.2z" fill-rule="nonzero" fill="#96B4D1"/><g transform="translate(238.76 16.914)"><mask id="d" fill="#fff"><use xlink:href="#c"/></mask><g fill-rule="nonzero" mask="url(#d)"><path d="M21.5 18.35s-1.4-5.77-1.4-7.75c0-4.26 3.52-4.23 3.52-4.23 2.1-3.5 9.84-3.52 9.84-3.52l.7 1.4c3.88-1.23 9.15-1.4 9.15-1.4s1.02 1.4 1.42 3.52c.82 4.38-.7 11.98-.7 11.98H21.5z" fill="#734A3E"/><path d="M33.46 2.85s-7.78 0-9.84 3.52c0 0-3.52-.03-3.52 4.23 0 1.98 1.4 7.75 1.4 7.75h4.55l4.6-6.34s7.1-3.63 12.66-9.15c0 0-5.26.17-9.13 1.4l-.7-1.4z" fill="#623F33"/><path d="M46.8 40.1l-.05-.6c-.02-.2-.23-.38-.46-.35h-.04l-.62-4.95c-.13-1.08-.87-1.98-1.9-2.32l-4.05-1.35.1-.2-1.53-1.02c-.32-.2-.76-.12-.98.2l-.22.33c-.06-.17-.1-.34-.1-.52v-2.26L40 25.77c1.58-.65 2.6-2.2 2.6-3.9v-.7c1.17 0 2.12-.95 2.12-2.12 0-.55-.22-1.06-.57-1.44.35-2 1.23-7.67.57-11.23-.4-2.1-1.4-3.52-1.4-3.52s-5.28.17-9.15 1.4l-.7-1.4s-7.8 0-9.85 3.52h-.02-.1-.03l-.13.02h-.1l-.1.02c-.05 0-.1.02-.13.03-.85.18-2.35.8-2.78 2.9l-.03.16c-.04.17-.06.35-.08.53l-.02.57c0 .15 0 .33.03.53 0 .2.03.4.06.64v.14c.15 1.04.4 2.33.64 3.48l.03.15c.16.78.32 1.48.44 2l.04.12c-.33.37-.54.86-.54 1.4 0 1.17.95 2.12 2.1 2.12v.7c0 1.7 1.04 3.25 2.6 3.9l3.04 1.27v2.27c0 .2-.03.36-.1.53l-.2-.33c-.23-.32-.66-.4-1-.2l-1.5 1.03.1.2-4.06 1.35c-1.02.34-1.76 1.24-1.9 2.32l-.62 4.95h-.03c-.23-.03-.43.14-.46.36l-.06.6c-.02.22.15.42.37.45l1.03.1v1.65c0 .78.63 1.4 1.4 1.4H44c.8 0 1.42-.62 1.42-1.4v-1.64l1.03-.1c.23-.04.4-.24.36-.47z" fill="#F6B47B"/><path d="M45.64 34.2c-.13-1.08-.87-1.98-1.9-2.32l-4.55-1.52c-.67 1.5-4.33 2.78-4.33 2.78l-1.4 1.4c0 .02-1.3 0-1.4 0l-1.42-1.4s-3.65-1.3-4.32-2.78l-4.55 1.52c-1.02.34-1.76 1.24-1.9 2.32l-.67 5.36 5.82.63v3.5H40.5v-3.5h5.9l-.76-6z" fill="#FF4F4F"/><path d="M21.5 18.35s-1.4-5.77-1.4-7.75c0-4.26 3.52-4.23 3.52-4.23 2.03-3.46 9.84-3.52 9.84-3.52l.7 1.4c3.88-1.23 9.15-1.4 9.15-1.4s1.02 1.4 1.42 3.52c.82 4.38-.7 11.98-.7 11.98H21.5z" fill="#734A3E"/><path d="M33.46 2.85s-7.78 0-9.84 3.52c0 0-3.52-.03-3.52 4.23 0 1.98 1.4 7.75 1.4 7.75h4.55l4.6-6.34s7.1-3.63 12.66-9.15c0 0-5.26.17-9.13 1.4l-.7-1.4z" fill="#623F33"/><path d="M36.98 26.98h-8.44v2.33c0 .52-.28.96-.7 1.2 5.9 1.05 9.14-3.52 9.14-3.52z" fill="#E2A071"/><path d="M42.6 16.94v-1.4c0-1.96-1.57-3.53-3.5-3.53H26.42c-1.94 0-3.52 1.58-3.52 3.53v1.4c-1.15 0-2.1.96-2.1 2.12 0 1.17.95 2.12 2.1 2.12v.7c0 1.7 1.04 3.25 2.6 3.9l4.56 1.9c.85.36 1.77.54 2.7.54.93 0 1.85-.17 2.7-.53l4.55-1.9c1.58-.65 2.6-2.2 2.6-3.9v-.7c1.17 0 2.12-.95 2.12-2.12 0-1.16-.95-2.1-2.1-2.1z" fill="#FDC88E"/><path d="M27.84 19.76c-.4 0-.7-.32-.7-.7v-.7c0-.4.3-.72.7-.72.38 0 .7.32.7.7v.7c0 .4-.32.72-.7.72zM37.68 19.76c-.38 0-.7-.32-.7-.7v-.7c0-.4.32-.72.7-.72.4 0 .7.32.7.7v.7c0 .4-.3.72-.7.72z" fill="#623F33"/><path d="M32.76 24.7c-1.25 0-2.42-.3-3.2-.84-.33-.22-.4-.65-.2-.98.22-.32.66-.4.98-.18.56.37 1.46.6 2.42.6s1.87-.23 2.42-.6c.32-.22.76-.14.98.18.2.33.13.76-.2.98-.78.54-1.95.85-3.2.85z" fill="#E2A071"/><path d="M25.02 40.72v-1.6c0-.67-.24-1.33-.68-1.84l-3.87-4.47c-.3.4-.52.88-.6 1.4l-.72 5.9c1.12.06 4.1.4 5.87.62z" fill="#F23F44"/><path d="M25.02 39.8l-5.8-.65c-.22-.03-.42.14-.45.36l-.06.6c-.02.22.15.42.37.45l5.95.66v-1.4z" fill="#D6343A"/><path d="M40.5 40.72v-1.6c0-.67.24-1.33.68-1.84l3.87-4.47c.32.4.52.88.6 1.4l.72 5.9c-1.1.06-4.1.4-5.87.62z" fill="#F23F44"/><path d="M40.5 39.8l5.8-.65c.22-.03.43.14.45.36l.06.6c.04.22-.12.42-.35.45l-5.95.66v-1.4z" fill="#D6343A"/><path d="M28.23 29.5l2.42 3.64-2.1 2.82-2.82-5.63 1.52-1.02c.33-.2.76-.12.98.2zM37.3 29.5l-2.43 3.64 2.1 2.82 2.82-5.63-1.53-1.02c-.32-.2-.76-.12-.98.2zM32.76 40.2c-.4 0-.7-.33-.7-.72v-4.93h1.4v4.93c0 .4-.3.7-.7.7z" fill="#F23F44"/><path d="M26.6 24.3c-.56-.6-.87-1.4-.87-2.24v-8.1c2.47-.26 7.85-.92 13.36-1.95H26.42c-.24 0-.48.04-.7.1v-.02c-1.6.32-2.82 1.75-2.82 3.45v1.4c-1.15 0-2.1.96-2.1 2.12 0 1.17.95 2.12 2.1 2.12v.7c0 1.7 1.04 3.25 2.6 3.9l4.56 1.9c.22.1.44.17.67.24-2-1.46-3.34-2.75-4.12-3.6z" fill="#F6B47B"/></g></g><g><path d="M281.5 42.73h23.3v15.13h-23.3z" fill-rule="nonzero" fill="#B9DDB9"/><g transform="translate(281.492 42.73)"><mask id="f" fill="#fff"><use xlink:href="#e"/></mask><g fill-rule="nonzero" mask="url(#f)"><path d="M16 13.7l-.04-.13c-.02-.08-.1-.12-.16-.1l-.05-.35-.1-.7v-.1c-.05-.37-.3-.7-.67-.88l-.45-.23c-.08-.02-.13.02-.2.08l-.98-.36c-.18-.06-.3-.23-.3-.43v-.74l.98-.4c.5-.22.85-.72.85-1.27V6.04c0-.63-.52-1.6-1.15-1.6H9.6c-.64 0-1.15.97-1.15 1.6V8.1c0 .54.33 1.04.85 1.25l.98.4v.74c0 .2-.12.36-.3.42l-1 .36c-.05-.06-.1-.1-.18-.07l-.45.24c-.4.2-.62.5-.67.88v.1l-.1.7-.05.34c-.08 0-.15.03-.17.1l-.04.15c-.03.1.02.18.1.2h.04l-.06.46c-.05.4.27.77.7.77h7.14c.4 0 .74-.36.68-.77l-.06-.45h.04c.08-.02.13-.1.1-.2z" fill="#F6B47B"/><path d="M10.28 9.7v.8c0 .15-.08.3-.22.38 1.83.3 2.88-1.05 2.97-1.17h-2.75z" fill="#E2A071"/><path d="M14.03 9.35l-1.48.6c-.28.13-.58.2-.9.2-.3 0-.6-.07-.87-.2l-1.48-.6c-.52-.2-.85-.7-.85-1.26V6.04c0-.63.5-1.6 1.15-1.6h4.13c.63 0 1.15.97 1.15 1.6V8.1c0 .54-.34 1.04-.85 1.25z" fill="#FDC88E"/><path d="M11.66 9c-.4 0-.8-.1-1.05-.27-.1-.07-.12-.2-.05-.3.08-.12.22-.14.32-.07.18.12.48.2.8.2.3 0 .6-.08.78-.2.1-.07.25-.05.32.06.07.1.04.24-.06.3-.25.2-.63.3-1.04.3z" fill="#E2A071"/><path d="M8.45 6.3v1.8c0 .54.33 1.04.85 1.25l1.48.6.22.1c-.65-.48-1.1-.9-1.35-1.17-.18-.2-.28-.46-.28-.73V6.88c.65-.23 2.35-.97 2.38-2.2v-.3c-1.1 1.45-2.58 1.84-3.3 1.93z" fill="#F6B47B"/><path d="M15.64 9.5c0-.47-.4-.67-.4-1.08 0-.4.52-.52.52-1.13 0-.43-.2-.74-.3-1.04.7-3-1.94-4.3-2.65-4.3-.74 0-1.14.23-1.14.23s-.4-.24-1.15-.24c-.7 0-3.32 1.3-2.63 4.3-.12.3-.3.6-.3 1.03 0 .6.52.7.52 1.12 0 .4-.4.6-.4 1.1 0 .48.37.7.5 1.07.06.16 0 .65 0 .65s.4-.66.18-1.28c-.2-.6.04-.68.23-.94.3-.4.27-.86.03-1.3-.16-.3-.12-.56.1-.75.23-.2.28-.55.28-.55 1.1-.32 2.66-.95 2.66-1.97 0 1.02 1.56 1.65 2.65 1.97 0 0 .07.35.3.55.2.2.25.46.1.75-.24.44-.28.9 0 1.3.2.26.46.33.24.94-.2.62.2 1.28.2 1.28s-.07-.5-.02-.66c.13-.37.52-.6.52-1.1z" fill="#6E4439"/><path d="M15.65 12.32c-.05-.37-.3-.7-.67-.88l-.45-.23c-.1-.03-.15.04-.2.1-1.23 1.4-2.67 2.02-2.67 2.02s-1.43-.6-2.66-2c-.06-.08-.12-.15-.2-.1l-.45.22c-.4.2-.62.5-.67.88l-.2 1.4c.62.2 1.66.5 1.66.5v.9h5.05v-.9s1.03-.3 1.63-.5l-.18-1.4z" fill="#57B9DD"/><path d="M9.13 14.16c0-.27-.1-.54-.27-.75L7.78 12c-.05.1-.1.2-.1.32l-.18 1.35 1.63.5z" fill="#43A0C5"/><path d="M7.32 13.7c-.03.1.02.18.1.2l1.72.5v-.17c0-.1-.02-.22-.05-.32l-1.55-.44c-.08-.02-.17.03-.2.1l-.03.15z" fill="#258CAC"/><path d="M14.2 14.16c0-.27.1-.54.26-.75l1.08-1.4c.05.1.1.2.1.32l.2 1.35-1.65.5z" fill="#43A0C5"/><path d="M16 13.7c.03.1-.02.18-.1.2l-1.7.5v-.17c0-.1 0-.22.03-.32l1.55-.44c.08-.02.16.03.18.1l.05.15z" fill="#258CAC"/><path d="M10.5 1.96c-.7 0-3.32 1.3-2.63 4.3-.12.3-.3.6-.3 1.03 0 .6.52.7.52 1.12 0 .4-.4.6-.4 1.1 0 .48.37.7.5 1.07.06.16 0 .65 0 .65s.4-.66.18-1.28c-.2-.6.04-.68.23-.94.3-.4.27-.86.03-1.3-.16-.3-.12-.56.1-.75.23-.2.28-.55.28-.55-.64-2.96 1.95-4.24 2.66-4.24 0 0-.4-.24-1.15-.24z" fill="#5E342E"/></g></g></g></g></svg>